<?xml version="1.0" encoding="UTF-8"?>
<svg id="Layer_1" data-name="Layer 1" xmlns="http://www.w3.org/2000/svg" viewBox="0 0 1080 1125.4">
  <defs>
    <style>
      .cls-1 {
        fill: #fff;
      }

      .cls-1, .cls-2, .cls-3, .cls-4 {
        stroke-miterlimit: 10;
      }

      .cls-1, .cls-3 {
        stroke: #231f20;
      }

      .cls-2 {
        fill: #e7ad36;
        stroke: #0d0c0c;
      }

      .cls-4 {
        fill: #a0333a;
        stroke: #060505;
      }

      .cls-5 {
        fill: #121111;
      }

      .cls-6 {
        fill: #dc1e3d;
      }
    </style>
  </defs>
  <g>
    <path class="cls-6" d="m490.07,718.51v28.77h-.26l-16.72-16.27v15.78h-5.66v-28.73h.28l16.69,16.24v-15.78h5.68Z"/>
    <path class="cls-6" d="m509.46,724.16v5.51h9.72v5.64h-9.72v5.82h11.32v5.63h-16.99v-28.17h16.99v5.58h-11.32Z"/>
    <path class="cls-6" d="m533.77,718.58h9.89c5.45,0,9.91,4.28,9.91,9.52s-4.46,9.49-9.91,9.49h-4.23v9.16h-5.66v-28.17Zm14.14,9.47c0-2.13-1.9-3.86-4.25-3.86h-4.23v7.79l4.23.02c2.34.02,4.25-1.76,4.25-3.95Z"/>
    <path class="cls-6" d="m577.45,742.82h-11.27l-1.8,3.93h-6.12l13.46-28.87h.17l13.47,28.87h-6.13l-1.78-3.93Zm-2.2-4.82l-3.43-7.53-3.44,7.53h6.87Z"/>
    <path class="cls-6" d="m614,741.13v5.63h-16.99v-28.17h5.66v22.54h11.32Z"/>
  </g>
  <rect class="cls-5" x="660.88" y="667.07" width="86.06" height="28.12" transform="translate(1407.83 1362.26) rotate(180)"/>
  <g>
    <path class="cls-5" d="m354.04,597.06l-15.57-5.33c-15.53-5.29-23.29-15.22-23.29-29.79,0-7.8,2.18-14.28,6.53-19.44,4.36-5.16,9.82-7.74,16.4-7.74,7.12,0,13.48,3.51,19.06,10.53,2.21,2.78,3.87,5.68,4.97,8.72,1.1,3.04,2.52,8.45,4.23,16.25.12.52.31,1.26.55,2.22l.47-.79c1.23-2.94,3.71-10.92,7.46-23.92,1.9-6.6,4.45-12.92,7.65-18.99l-1.02-.64c-3.56,2.94-6.85,4.42-9.85,4.42-2.15,0-5.46-.87-9.94-2.61-9.59-3.64-17.97-5.45-25.15-5.45-11.17,0-20.25,4.27-27.21,12.8-6.97,8.54-10.45,19.66-10.45,33.36s2.61,23.63,7.83,31.08c5.22,7.45,13.63,12.79,25.23,16,15.04,4.16,24.98,8.68,29.83,13.53,6.75,6.85,10.13,15.53,10.13,26.02,0,9.11-2.42,16.35-7.28,21.72-4.85,5.37-11.38,8.06-19.61,8.06-10.43,0-18.88-3.77-25.33-11.31-6.45-7.55-10.31-18.12-11.6-31.74l-1.65-.64c-3.07,14.65-8.42,30.09-16.03,46.3l.74,1.81c3.98-3.37,7.86-5.06,11.6-5.06,2.82,0,6.41.74,10.77,2.2l10.78,3.77c8.66,3.04,16.49,4.55,23.48,4.55,11.17,0,20.55-4.84,28.14-14.51,7.58-9.66,11.36-21.6,11.36-35.82,0-25.49-11.08-42.01-33.24-49.55Z"/>
    <path class="cls-5" d="m347.77,700.06c-7.31,0-15.56-1.59-24.51-4.73l-10.78-3.77c-3.99-1.34-7.28-2.03-9.74-2.03-2.97,0-6.2,1.46-9.59,4.33l-3.27,2.77-2.88-7.05.58-1.24c7.48-15.93,12.79-31.28,15.8-45.61l.75-3.6,6.87,2.68.18,1.91c1.23,12.91,4.88,23,10.87,30.01,5.88,6.88,13.39,10.22,22.96,10.22,7.37,0,13.03-2.3,17.3-7.03,4.29-4.76,6.47-11.36,6.47-19.63,0-9.73-3.02-17.53-9.23-23.83-4.43-4.43-14.01-8.71-28.45-12.71-12.26-3.39-21.33-9.18-26.95-17.21-5.57-7.95-8.39-19.01-8.39-32.87s3.75-26.27,11.15-35.33c7.55-9.25,17.52-13.95,29.62-13.95,7.53,0,16.37,1.9,26.25,5.66,5.14,1.99,7.64,2.4,8.83,2.4,2.25,0,4.89-1.25,7.87-3.7l1.74-1.44,5.36,3.39-1.34,2.55c-3.08,5.86-5.58,12.05-7.41,18.4-3.83,13.28-6.3,21.21-7.57,24.26l-.19.38-4.33,7.36-2.07-8.29c-.14-.55-.25-1-.34-1.36-1.67-7.62-3.06-12.96-4.13-15.9-.97-2.68-2.48-5.32-4.49-7.84-5-6.29-10.44-9.35-16.62-9.35-5.66,0-10.25,2.17-14.02,6.63-3.9,4.62-5.8,10.32-5.8,17.43,0,13.21,6.93,21.99,21.18,26.84l15.57,5.33c23.45,7.98,35.35,25.64,35.35,52.5,0,14.88-4.05,27.58-12.03,37.75-8.17,10.42-18.47,15.7-30.59,15.7Zm-45.02-16.76c3.18,0,7.02.77,11.76,2.37l10.81,3.79c8.29,2.9,15.84,4.38,22.45,4.38,10.26,0,18.66-4.35,25.69-13.31,7.1-9.05,10.7-20.45,10.7-33.9,0-24.23-10.18-39.48-31.13-46.6h0s-15.57-5.33-15.57-5.33c-16.85-5.74-25.4-16.76-25.4-32.74,0-8.52,2.45-15.74,7.27-21.45,4.96-5.87,11.27-8.84,18.78-8.84,8.09,0,15.32,3.94,21.5,11.71,2.42,3.05,4.26,6.28,5.46,9.59.71,1.96,1.54,4.82,2.46,8.54,1.17-3.81,2.62-8.68,4.32-14.59,1.18-4.09,2.62-8.12,4.29-12.04-1.54.53-3.05.8-4.52.8-2.58,0-6.1-.89-11.06-2.82-9.16-3.48-17.25-5.24-24.02-5.24-10.28,0-18.39,3.81-24.79,11.65-6.47,7.93-9.75,18.49-9.75,31.39s2.44,22.41,7.26,29.29c4.77,6.81,12.68,11.79,23.51,14.78,15.71,4.35,25.91,9.04,31.21,14.33,7.33,7.44,11.04,16.93,11.04,28.22,0,9.86-2.72,17.87-8.08,23.81-5.44,6.03-12.82,9.09-21.92,9.09-11.34,0-20.65-4.17-27.69-12.4-4.97-5.82-8.52-13.35-10.61-22.49-2.66,9.5-6.22,19.34-10.64,29.42,2.24-.94,4.47-1.41,6.67-1.41Z"/>
  </g>
  <path class="cls-5" d="m522.22,585.84v-46.28c0-2.47,1.1-4.91,3.32-7.32,2.21-2.4,4.62-3.61,7.22-3.61v-1.76c-2.75,0-9.71-1.49-20.85-4.49-11.15-3-20.16-4.49-27.03-4.49-5.81,0-12.75.97-20.85,2.92-16.64,4.04-25.65,6.05-27.03,6.05v1.76c2.44,0,4.82,1.24,7.11,3.71,2.29,2.47,3.44,4.89,3.44,7.23v142.7c0,2.47-1.11,4.92-3.32,7.33-2.21,2.41-4.62,3.61-7.22,3.61v1.76c2.75,0,9.69,1.46,20.85,4.4,11.15,2.93,20.16,4.39,27.03,4.39,5.8,0,12.75-.95,20.84-2.86,16.65-3.95,25.66-5.92,27.04-5.92v-1.76c-2.6,0-5.01-1.23-7.22-3.69-2.22-2.46-3.32-4.97-3.32-7.5v-54.61h-26.28v39.42c0,6.06-4.92,10.98-10.99,10.98h-.12c-6.08,0-10.99-4.92-10.99-10.98v-112.24c0-6.07,4.92-10.99,10.99-10.99h.12c6.07,0,10.99,4.92,10.99,10.99v31.23h26.28Z"/>
  <path class="cls-5" d="m434.16,694.98h-45.3v-1.76c2.21,0,4.27-1.21,6.15-3.61,1.89-2.41,2.83-4.85,2.83-7.33v-142.7c0-2.34-.98-4.75-2.93-7.23-1.95-2.48-3.97-3.72-6.05-3.72v-1.76h45.3v1.76c-2.22,0-4.27,1.21-6.15,3.62-1.89,2.41-2.83,4.85-2.83,7.33v142.7c0,2.48.94,4.92,2.83,7.33,1.89,2.41,3.93,3.61,6.15,3.61v1.76Z"/>
  <g>
    <path class="cls-5" d="m580.87,694.98h-45.3v-1.76c2.21,0,4.26-1.21,6.15-3.61,1.89-2.41,2.83-4.85,2.83-7.33v-142.7c0-2.34-.98-4.75-2.93-7.23-1.95-2.48-3.97-3.72-6.05-3.72v-1.76h45.3v1.76c-2.21,0-4.26,1.21-6.15,3.62-1.89,2.41-2.83,4.85-2.83,7.33v142.7c0,2.48.94,4.92,2.83,7.33,1.89,2.41,3.94,3.61,6.15,3.61v1.76Z"/>
    <path class="cls-5" d="m646.04,694.98h-45.3v-1.76c2.21,0,4.26-1.21,6.15-3.61,1.89-2.41,2.83-4.85,2.83-7.33v-142.7c0-2.34-.98-4.75-2.93-7.23-1.95-2.48-3.97-3.72-6.05-3.72v-1.76h45.3v1.76c-2.21,0-4.26,1.21-6.15,3.62-1.89,2.41-2.83,4.85-2.83,7.33v142.7c0,2.48.94,4.92,2.83,7.33,1.89,2.41,3.94,3.61,6.15,3.61v1.76Z"/>
    <rect class="cls-5" x="545.2" y="592.3" width="90.99" height="24.27" transform="translate(1181.39 1208.87) rotate(180)"/>
  </g>
  <path class="cls-5" d="m694.71,695.19h-45.3v-1.76c2.21,0,4.26-1.21,6.15-3.61,1.89-2.41,2.83-4.85,2.83-7.33v-142.7c0-2.34-.98-4.75-2.93-7.23-1.95-2.48-3.97-3.72-6.05-3.72v-1.76h45.3v1.76c-2.21,0-4.26,1.21-6.15,3.62-1.89,2.41-2.83,4.85-2.83,7.33v142.7c0,2.48.94,4.92,2.83,7.33,1.89,2.41,3.94,3.61,6.15,3.61v1.76Z"/>
  <path class="cls-5" d="m754.12,689.82c-1.89-2.41-2.83-4.86-2.83-7.33v-123.87c-1.31-.52-2.62-1.07-3.92-1.64-6.71-2.92-13.2-6.28-19.47-10.07-1.33-.8-2.65-1.62-3.95-2.45v138.03c0,2.47-.94,4.92-2.83,7.33-1.88,2.41-3.94,3.61-6.15,3.61v1.76h45.29v-1.76c-2.22,0-4.26-1.2-6.15-3.61Zm-15.4-152.28c4.02,2.54,8.2,4.77,12.57,6.62v-4.38c0-2.37.87-4.71,2.61-7.03-2.47-1.07-4.92-2.22-7.34-3.43-1.42-.71-2.82-1.46-4.2-2.25h-16.73c1.53,1.62,3.17,3.12,4.89,4.54,2.61,2.15,5.35,4.11,8.21,5.92Z"/>
  <g>
    <path class="cls-4" d="m700.24,530.06c.05-.33.08-.67.14-1,.13-.71.43-1.34.85-1.93.93-1.3,2.26-2.02,3.73-2.48.77-.24,1.57-.42,2.37-.53,1.02-.14,2.06-.23,3.09-.27.85-.03,1.7.03,2.55.07.86.05,1.72.1,2.58.19.75.08,1.51.18,2.25.31,1.42.25,2.85.51,4.26.8.99.2,1.97.45,2.96.7.17.04.22,0,.28-.15.19-.53.52-.74,1.1-.7.33.03.45-.03.62-.34.53-.92,1.03-1.85,1.58-2.75.39-.63.84-1.21,1.29-1.8.32-.43.67-.84,1.03-1.24.92-1.06,1.95-2,3.04-2.9,1.27-1.05,2.62-1.97,4.06-2.77,1.53-.85,3.13-1.55,4.8-2.07.89-.27,1.8-.47,2.71-.67.53-.12,1.06-.19,1.6-.27.41-.06.82-.09,1.24-.14.05,0,.1-.04.15-.06.38-.03.76-.05,1.15-.08.09.01.18.04.26.03.55-.02,1.11-.07,1.66-.05.77.02,1.54.06,2.3.15,1.1.14,2.2.29,3.28.51,1.85.38,3.63,1.01,5.36,1.77,1.44.64,2.85,1.37,4.15,2.27.8.55,1.6,1.11,2.35,1.71.82.65,1.64,1.32,2.37,2.07.98,1,1.9,2.07,2.79,3.15,1,1.22,1.87,2.56,2.6,3.96.64,1.22,1.22,2.47,1.75,3.74.51,1.23.91,2.51,1.19,3.82.16.76.33,1.52.47,2.29.09.51.16,1.02.21,1.54.08.72.17,1.43.2,2.15.03.9,0,1.81-.01,2.71-.01,1.48-.21,2.94-.48,4.4-.23,1.26-.56,2.51-.99,3.72-.16.44-.08.59.28.88.48.38.76.85.66,1.48-.08.48-.19.95-.32,1.42-.07.25-.03.43.17.59.66.57,1.33,1.13,1.97,1.72.78.7,1.55,1.4,2.29,2.15,1.31,1.32,2.6,2.66,3.72,4.15.75,1,1.48,2,2.18,3.04.88,1.3,1.51,2.72,1.98,4.22.09.29.12.6.19.9.01.05.04.1.06.15.03.45.06.9.09,1.36-.05.36-.07.72-.14,1.07-.2,1.08-.71,1.98-1.52,2.73-.99.93-2.18,1.47-3.46,1.84-.61.18-1.25.27-1.88.4-.04,0-.08.04-.13.06-1.22.08-2.43.17-3.65.25-.03-.02-.05-.04-.08-.04-.4-.01-.81,0-1.21-.03-.6-.02-1.2-.03-1.8-.09-1.36-.15-2.73-.27-4.08-.51-1.78-.31-3.54-.68-5.3-1.09-1.55-.36-3.09-.77-4.61-1.23-2.12-.64-4.23-1.32-6.32-2.04-1.88-.65-3.74-1.35-5.58-2.09-1.98-.8-3.94-1.67-5.9-2.52-.89-.39-1.78-.78-2.66-1.2-1.51-.72-3.01-1.45-4.51-2.2-1.48-.75-2.95-1.51-4.4-2.3-1.29-.7-2.56-1.43-3.83-2.16-.84-.48-1.67-.96-2.49-1.47-1.22-.76-2.43-1.54-3.63-2.32-.93-.6-1.85-1.2-2.76-1.82-.84-.58-1.67-1.18-2.5-1.77-.78-.56-1.56-1.12-2.34-1.69-.64-.48-1.28-.96-1.91-1.46-.87-.69-1.74-1.37-2.58-2.1-1.47-1.29-2.9-2.61-4.35-3.92-.37-.34-.74-.68-1.08-1.04-.75-.79-1.48-1.6-2.21-2.4-1.1-1.22-2.06-2.55-2.93-3.94-.46-.74-.88-1.51-1.24-2.3-.32-.7-.52-1.45-.77-2.19-.09-.29-.15-.59-.22-.88l-.1-1.46Zm78.9,25.36c-.38.42-.9.57-1.44.67-.18.03-.25.09-.16.27.37.77.15,1.43-.37,2.04-.21.24-.43.49-.59.76-.31.56-.79.89-1.38,1.08-1.27.42-2.58.65-3.91.69-1.87.05-3.72-.18-5.56-.51-3.9-.69-7.64-1.95-11.3-3.43-4.94-1.99-9.64-4.44-14.14-7.28-2.86-1.8-5.6-3.77-8.21-5.92-2.63-2.16-5.06-4.53-7.21-7.17-.76-.94-1.46-1.93-2.01-3.01-.22-.44-.26-.86-.04-1.32.5-1.06.78-2.19,1.06-3.32.02-.08.04-.17.06-.25.1-.43.23-.83.8-.93-.34-.5-.04-.83.29-1.18-.6-.14-1.14-.29-1.69-.4-2.1-.41-4.2-.85-6.31-1.19-1.31-.21-2.63-.29-3.95-.4-1.58-.13-3.17-.11-4.74.08-1.75.21-3.47.55-5,1.49-1.29.8-2.15,1.91-2.36,3.45-.17,1.23.06,2.42.47,3.58.61,1.71,1.56,3.23,2.6,4.71,1.73,2.46,3.78,4.64,5.93,6.73,3.21,3.11,6.7,5.87,10.34,8.46,2.97,2.12,6.04,4.09,9.16,5.97,6.27,3.79,12.76,7.15,19.48,10.07,5.46,2.38,11.05,4.41,16.79,6.01,2.76.77,5.53,1.44,8.36,1.88,1.7.26,3.42.44,5.13.61,1.66.17,3.32.13,4.97-.03,1.72-.17,3.4-.51,4.93-1.36,1.59-.88,2.58-2.19,2.69-4.05.08-1.34-.25-2.6-.77-3.82-1.01-2.36-2.47-4.44-4.13-6.38-1.75-2.05-3.65-3.97-5.67-5.77-.56-.5-1.16-.97-1.74-1.45-.11.19-.22.43-.39.62Zm-9.21-5.19c.29-.56.34-1.2.77-1.66.03,0,.06.01.08.02-.06.29-.12.58-.19.86-.07.29-.16.57-.26.89.5.13.99.26,1.47.37.05.01.14-.06.16-.11.05-.09.05-.21.1-.29.05-.08.14-.14.22-.21.03.09.08.18.07.27,0,.15-.04.29-.07.47.79.18,1.57.36,2.34.53.15-.29.27-.55.43-.87.24.36,0,.62-.03.95.32.06.64.12.97.18.05,0,.1,0,.15.02.22.06.37,0,.47-.23.12-.24.29-.46.44-.69.03.02.06.03.09.05-.12.31-.24.61-.36.92.44.29.79.21.99-.24,1.01-2.29,1.65-4.69,1.95-7.17.22-1.85.29-3.7.19-5.57-.11-2.14-.46-4.25-1.05-6.31-.96-3.39-2.5-6.5-4.52-9.37-1.25-1.77-2.69-3.39-4.3-4.86-2.96-2.7-6.33-4.69-10.12-5.98-2.07-.71-4.2-1.19-6.39-1.38-1.88-.16-3.75-.16-5.62.05-3.19.36-6.2,1.31-9.04,2.81-2.26,1.2-4.32,2.66-6.15,4.44-2.03,1.97-3.69,4.22-5.03,6.7-.26.49-.49,1-.75,1.49-.08.16-.05.26.06.39,1.44,1.6,3.1,2.95,4.74,4.33,2.01,1.68,4.22,3.1,6.38,4.58,3.19,2.2,6.52,4.17,9.99,5.89,5.91,2.94,11.98,5.53,18.24,7.64.65.22,1.31.41,1.96.62.17.05.28.07.34-.16.03-.12.21-.32.28-.31.21.05.1.25.09.4,0,.08-.03.15-.05.27.33.09.63.18.94.27Zm8.77,1.12c.31.42.2.87.11,1.3-.11.52-.29,1.04-.46,1.54-.13.37-.41.62-.73.83-.22.14-.43.28-.63.45.63,0,1.22-.11,1.69-.55.12-.11.19-.29.24-.45.17-.57.32-1.14.49-1.72.2-.72-.03-1.4-.68-1.86-.01.18-.09.36-.03.45Zm-3.6,8.29c.32-.13.59-.32.79-.6.32-.43.65-.86.98-1.28.2-.26.29-.54.19-.93-.76.91-1.47,1.78-1.96,2.82Z"/>
    <path class="cls-2" d="m781.26,556.25c2.01,1.8,3.91,3.72,5.67,5.77,1.66,1.94,3.12,4.02,4.13,6.38.52,1.22.85,2.48.77,3.82-.11,1.86-1.1,3.17-2.69,4.05-1.53.85-3.21,1.19-4.93,1.36-1.66.16-3.32.2-4.97.03-1.71-.17-3.43-.35-5.13-.61-2.83-.44-5.61-1.12-8.36-1.88-5.74-1.6-11.33-3.63-16.79-6.01-6.72-2.93-13.21-6.28-19.48-10.07-3.12-1.89-6.19-3.86-9.16-5.97-3.64-2.59-7.13-5.35-10.34-8.46-2.15-2.09-4.2-4.27-5.93-6.73-1.04-1.47-1.99-3-2.6-4.71-.41-1.16-.64-2.35-.47-3.58.21-1.54,1.07-2.65,2.36-3.45,1.53-.94,3.25-1.29,5-1.49,1.58-.19,3.16-.21,4.74-.08,1.32.11,2.65.19,3.95.4,2.11.34,4.21.78,6.31,1.19.55.11,1.09.26,1.69.4-.33.35-.64.69-.29,1.18-.56.1-.7.5-.8.93-.02.08-.04.17-.06.25-.27,1.13-.56,2.26-1.06,3.32-.22.46-.18.88.04,1.32.55,1.08,1.24,2.07,2.01,3.01,2.15,2.64,4.58,5.01,7.21,7.17,2.61,2.15,5.35,4.12,8.21,5.92,4.5,2.84,9.2,5.29,14.14,7.28,3.67,1.48,7.4,2.74,11.3,3.43,1.84.33,3.69.56,5.56.51,1.34-.04,2.64-.27,3.91-.69.59-.19,1.07-.52,1.38-1.08.15-.28.38-.52.59-.76.53-.61.74-1.27.37-2.04-.09-.18-.02-.24.16-.27.54-.09,1.06-.25,1.44-.67.17-.19.27-.43.39-.62.58.48,1.18.94,1.74,1.45Zm-12.94,12.22c1.84.46,3.68.84,5.58.87,1.08.02,2.16.02,3.23-.03,1.08-.05,2.11-.32,3.1-.77.12-.05.23-.13.33-.21.04-.03.07-.12.05-.16-.03-.05-.11-.11-.16-.1-.14.01-.28.04-.41.09-1.54.5-3.13.65-4.74.59-1.17-.04-2.35-.04-3.52-.15-1.38-.13-2.76-.36-4.14-.54-.08-.01-.17,0-.26,0,0,.03-.01.06-.02.09.32.11.63.24.95.32Zm-47.82-29.65c-.61-.79-1.24-1.57-1.85-2.36-.76-.99-1.54-1.98-2.05-3.14-.34-.79-.49-1.61-.32-2.47.03-.16.09-.32-.13-.39-.21-.07-.35.07-.4.24-.1.42-.23.85-.23,1.27,0,.96.39,1.81.86,2.62.61,1.06,1.41,1.99,2.25,2.87.52.55,1.1,1.04,1.66,1.55.07.07.17.1.26.15.03-.02.05-.04.08-.06-.04-.09-.07-.2-.13-.28Zm-3.66,7.58c-1.3-1.2-2.62-2.4-3.91-3.62-.52-.49-.99-1.03-1.48-1.54-.08-.09-.16-.19-.27-.25-.09-.05-.22-.04-.33-.06,0,.1-.04.24.01.31.39.51.77,1.03,1.21,1.49,1.38,1.48,2.97,2.71,4.64,3.83.08.06.18.1.27.14.02-.02.04-.05.06-.07-.07-.08-.13-.16-.21-.24Zm-10.48-9.08c-.67-1.04-1.33-2.07-2.01-3.1-.1-.15-.21-.37-.45-.24-.21.12-.15.35-.06.51.29.47.57.95.91,1.38.43.54.91,1.04,1.38,1.56.06.07.14.11.22.16.03-.02.05-.03.08-.05-.02-.07-.03-.16-.07-.22Zm67.05,26.25c1.18.25,2.36.31,3.51-.16.16-.07.32-.14.45-.25.07-.06.07-.19.1-.29-.11-.03-.22-.09-.31-.07-.42.12-.81.33-1.24.39-.79.11-1.59.14-2.39.2-.08,0-.17.02-.25.03v.08s.08.06.13.07Zm-7.51,6.88c.98.26,1.96.52,2.95.75.25.06.54.02.8-.01.08-.01.14-.16.22-.25-.08-.06-.16-.19-.24-.19-.99.02-1.94-.27-2.91-.41-.31-.04-.62-.1-.93-.14-.07-.01-.15,0-.22,0,0,.02-.01.04-.02.06.12.06.23.14.35.18Zm-52.93-30.48c-.36-.41-.74-.81-1.12-1.2-.06-.06-.18-.06-.27-.08,0,.1-.06.23-.02.29.19.26.39.51.61.73.29.29.61.55.92.81.06.05.14.07.22.11l.07-.07c-.13-.2-.25-.41-.41-.59Zm8.44,6.58c.08.06.18.14.27.14.1,0,.21-.06.31-.09-.03-.1-.04-.24-.11-.28-.57-.34-1.16-.67-1.74-.99-.06-.03-.16-.01-.23-.02-.02.04-.03.08-.05.11.52.38,1.03.75,1.55,1.13Zm-14.46-14.74c.02.06.12.1.18.15.02-.07.07-.13.07-.2.03-.54.05-1.09.05-1.63,0-.1-.11-.2-.18-.3-.1.06-.26.11-.28.19-.07.28-.09.58-.13.89.09.3.18.61.29.91Zm71.84,38.83c.23-.02.46-.09.68-.16.06-.02.09-.13.13-.2-.07-.03-.15-.11-.22-.1-.64.12-1.27.25-1.91.38,0,.04,0,.08,0,.12.44-.02.87-.02,1.31-.05Zm-70.63-33.63c-.2-.35-.4-.69-.63-1.02-.06-.08-.2-.11-.31-.16-.01.12-.06.25-.03.35.1.29.66.92,1.03,1.09-.02-.09-.02-.19-.06-.27Zm76.49,33.57c.43-.12.8-.33,1.04-.73.05-.08.04-.21.01-.3-.01-.04-.18-.09-.21-.06-.33.31-.65.64-.97.97-.01.01-.01.05-.02.09.05.01.1.04.15.03Zm-60.35-18.65c.13.09.29.16.44.22.04.02.13-.02.17-.06.03-.03.03-.12,0-.16-.12-.23-1.05-.67-1.32-.63-.02.03-.04.05-.06.08.25.19.5.39.75.56Zm50.18,15.44c.31,0,.62-.03.93-.07.06,0,.11-.12.17-.18-.06-.05-.13-.15-.18-.14-.4.03-.79.08-1.19.13-.09.01-.16.06-.25.1,0,.03,0,.06,0,.1.17.02.34.07.51.07Zm6.18-3.23c.07-.06.08-.2.12-.3-.11-.01-.23-.07-.31-.04-.35.17-.68.37-1.02.56.01.03.02.05.04.08.42.03.83-.03,1.17-.3Zm-64.12-27.41c.14.02.21-.05.16-.18-.12-.34-.37-.58-.67-.77-.13-.08-.26.03-.24.19.03.23.52.72.75.75Zm50.49,29.43c.24.06.49.08.74.1.06,0,.13-.1.2-.16-.06-.06-.11-.15-.17-.16-.45-.04-.91-.07-1.37-.1l-.04.11c.21.07.42.17.64.22Zm-55.2-35.67c-.01-.05-.11-.1-.17-.11-.04,0-.12.09-.12.13.04.39.18.74.41,1.05.03-.01.07-.02.1-.04-.07-.34-.14-.69-.22-1.03Z"/>
    <path class="cls-2" d="m769.03,549.69c0-.14.12-.35-.09-.4-.07-.02-.24.18-.28.31-.06.23-.18.22-.34.16-.65-.21-1.31-.4-1.96-.62-6.27-2.1-12.33-4.69-18.24-7.64-3.47-1.73-6.8-3.69-9.99-5.89-2.15-1.49-4.36-2.9-6.38-4.58-1.64-1.37-3.3-2.73-4.74-4.33-.12-.13-.15-.23-.06-.39.26-.49.49-1,.75-1.49,1.34-2.48,3-4.73,5.03-6.7,1.84-1.78,3.9-3.24,6.15-4.44,2.84-1.5,5.85-2.45,9.04-2.81,1.87-.21,3.74-.21,5.62-.05,2.19.18,4.32.67,6.39,1.38,3.79,1.29,7.16,3.28,10.12,5.98,1.61,1.47,3.05,3.08,4.3,4.86,2.02,2.87,3.56,5.99,4.52,9.37.59,2.06.93,4.16,1.05,6.31.1,1.86.03,3.72-.19,5.57-.3,2.49-.94,4.88-1.95,7.17-.2.45-.55.54-.99.24.12-.3.24-.61.36-.92-.03-.02-.06-.03-.09-.05-.15.23-.32.44-.44.69-.11.22-.25.29-.47.23-.05-.01-.1-.01-.15-.02-.33-.06-.65-.12-.97-.18.02-.33.27-.59.03-.95-.16.32-.29.58-.43.87-.77-.17-1.55-.35-2.34-.53.03-.18.07-.33.07-.47,0-.09-.05-.18-.07-.27-.07.07-.17.13-.22.21-.05.09-.05.2-.1.29-.03.05-.12.12-.16.11-.48-.11-.97-.24-1.47-.37.1-.33.19-.61.26-.89.07-.28.13-.57.19-.86-.03,0-.06-.01-.08-.02-.43.46-.48,1.1-.77,1.66-.31-.09-.62-.17-.94-.27.02-.12.05-.2.05-.27Zm4.66-1.83c.18-.37.36-.75.51-1.14.03-.07-.05-.26-.11-.27-.09-.02-.26.03-.3.11-.23.45-.37.93-.4,1.43.02.02.05.03.07.05.08-.06.18-.11.22-.19Zm.38,2.03c.08-.16.13-.34.16-.52.01-.07-.05-.16-.1-.21-.03-.02-.15,0-.17.04-.25.38-.31.82-.36,1.25.04.02.09.04.13.06.11-.2.24-.4.34-.61Zm2.11-.57c-.08.18-.13.38-.17.57-.01.06.02.17.06.19.05.02.15-.01.2-.06.2-.2.34-.92.22-1.26-.12.21-.24.38-.32.56Zm-4.43-.84c.04.13.18.18.28.08.15-.14.24-.82.14-1.03-.19.11-.47.75-.42.94Zm5.34-2.6s-.07-.13-.1-.13c-.07.01-.16.05-.18.1-.12.29-.21.59-.13.99.31-.3.37-.63.41-.96Z"/>
    <path class="cls-1" d="m778.72,550.91c-.01.18-.09.36-.03.45.31.42.2.87.11,1.3-.11.52-.29,1.04-.46,1.54-.13.37-.41.62-.73.83-.22.14-.43.28-.63.45.63,0,1.22-.11,1.69-.55.12-.11.19-.29.24-.45.17-.57.32-1.14.49-1.72.2-.72-.03-1.4-.68-1.86Z"/>
    <path class="cls-1" d="m777.06,556.83c-.76.91-1.47,1.78-1.96,2.82.32-.13.59-.32.79-.6.32-.43.65-.86.98-1.28.2-.26.29-.54.19-.93Z"/>
    <path class="cls-3" d="m720.63,539.1c-.04-.09-.07-.2-.13-.28-.61-.79-1.24-1.57-1.85-2.36-.76-.99-1.54-1.98-2.05-3.14-.34-.79-.49-1.61-.32-2.47.03-.16.09-.32-.13-.39-.21-.07-.35.07-.4.24-.1.42-.23.85-.23,1.27,0,.96.39,1.81.86,2.62.61,1.06,1.41,1.99,2.25,2.87.52.55,1.1,1.04,1.66,1.55.07.07.17.1.26.15.03-.02.05-.04.08-.06Z"/>
    <path class="cls-3" d="m773.29,563.5s.08.06.13.07c1.18.25,2.36.31,3.51-.16.16-.07.32-.14.45-.25.07-.06.07-.19.1-.29-.11-.03-.22-.09-.31-.07-.42.12-.81.33-1.24.39-.79.11-1.59.14-2.39.2-.08,0-.17.02-.25.03v.08Z"/>
    <path class="cls-3" d="m719.87,545.42c.52.38,1.03.75,1.55,1.13.08.06.18.14.27.14.1,0,.21-.06.31-.09-.03-.1-.04-.24-.11-.28-.57-.34-1.16-.67-1.74-.99-.06-.03-.16-.01-.23-.02-.02.04-.03.08-.05.11Z"/>
    <path class="cls-3" d="m723.56,551.36c.25.19.5.39.75.56.13.09.29.16.44.22.04.02.13-.02.17-.06.03-.03.03-.12,0-.16-.12-.23-1.05-.67-1.32-.63-.02.03-.04.05-.06.08Z"/>
    <path class="cls-3" d="m773.28,545.04c.08-.07.13-.1.15-.14.31-.5.5-1.05.59-1.62.01-.08-.07-.17-.1-.26-.08.06-.22.1-.24.17-.16.53-.29,1.06-.43,1.6-.02.06.02.14.03.25Z"/>
    <path class="cls-3" d="m773.47,548.05c.08-.06.18-.11.22-.19.18-.37.36-.75.51-1.14.03-.07-.05-.26-.11-.27-.09-.02-.26.03-.3.11-.23.45-.37.93-.4,1.43.02.02.05.03.07.05Z"/>
    <path class="cls-3" d="m770.48,546.78c.34-.5.53-1.07.67-1.65.01-.06-.1-.21-.15-.21-.09,0-.22.08-.24.15-.11.37-.19.74-.27,1.11-.04.19-.06.39-.09.58.03,0,.06.01.09.02Z"/>
    <path class="cls-3" d="m775.63,542.85c-.31.28-.5.62-.58,1.02-.01.08.08.17.12.26.08-.05.2-.08.23-.15.16-.35.31-.71.22-1.12Z"/>
    <path class="cls-3" d="m776.51,548.77c-.12.21-.24.38-.32.56-.08.18-.13.38-.17.57-.01.06.02.17.06.19.05.02.15-.01.2-.06.2-.2.34-.92.22-1.26Z"/>
    <path class="cls-3" d="m771.97,546.33c.36-.2.43-.49.51-.78.01-.05-.07-.17-.11-.17-.07,0-.18.05-.2.11-.08.25-.13.52-.2.84Z"/>
  </g>
  <rect class="cls-6" x="286.92" y="732.89" width="165.42" height="2.68"/>
  <rect class="cls-6" x="627.65" y="732.89" width="165.42" height="2.68"/>
</svg>