<svg id="e3ClzGbAnBY1" xmlns="http://www.w3.org/2000/svg" xmlns:xlink="http://www.w3.org/1999/xlink" viewBox="0 0 1080 1080" shape-rendering="geometricPrecision" text-rendering="geometricPrecision"><g transform="translate(294.548141-8.844264)"><g><g><path d="M284.04,1073.89h-.02l.28.28c-.08-.09-.18-.18-.26-.28Zm-37.24,11.82c.56,0,1.13.02,1.67.06-.56-.05-1.12-.08-1.67-.06Zm-2.25-.27c.1.06.22.09.34.13.11.05.24.06.37.09.37.06.78.08,1.25.06-.66-.1-1.31-.19-1.96-.28Zm25.47-24.66h-1.8l-.02.01h1.84c.57,0,1.14-.01,1.71-.02-.58.01-1.16.01-1.73.01Zm21.38,11.37c.33.15.65.11,1.02-.09-.36.2-.68.22-1.02.09ZM279.55,822.84c-.01-.07-.03-.13-.06-.2-.02-.07-.05-.14-.07-.2-.08-.15-.15-.3-.24-.42-.11-.15-.24-.3-.41-.42v-.01c-.02-.01-.03-.03-.06-.05-.07-.06-.15-.11-.23-.16-.4-.3-.92-.52-1.55-.7-.24-.09-.53-.16-.83-.24-1.75-.38-3.48-.74-5.23-1.05-1.73-.33-3.48-.61-5.23-.85-3.88-.57-7.76-.95-11.66-1.17-3.38-.21-6.79-.26-10.19-.18-1.88.03-3.76.13-5.64.23-.93.06-1.87.14-2.81.21-1.26.11-2.52.24-3.77.39-1.48.16-2.93.34-4.39.55-.18,0-.34.03-.52.06l-.46.07-1.69.25c-1,.15-1.98.32-2.95.48-.32.06-.65.11-.99.16-.3.06-.6.11-.88.17-.15.03-.31.06-.46.09-.59.11-1.16.22-1.75.34-.54.09-1.09.21-1.62.32-.02.01-.05.01-.07.02-.07.01-.13.03-.2.05-.09.02-.17.03-.25.06-.32.07-.64.14-.95.22-.26.06-.53.13-.79.18-.7.15-1.4.31-2.1.48-.02,0-.05.01-.07.02-2.01.49-4,1.01-5.96,1.6-.52.15-1.06.3-1.57.46-1.05.31-2.09.64-3.15,1l-.92.31c-.18.06-.37.11-.55.18-.44.15-.9.3-1.34.46-.01,0-.02.01-.03.01-.15.07-.32.13-.47.2-.02.01-.03.01-.06.02-.01,0-.03.01-.05.02-.13.02-.23.06-.34.09-.02.01-.05.01-.07.02-.3.11-.61.22-.91.33-.01,0-.01.01-.02.01-.01.01-.03.01-.06.02-.02.01-.05.01-.07.02-.86.31-1.73.64-2.6.99-.13.05-.25.09-.39.15-.96.39-1.94.79-2.92,1.22-.47.2-.94.39-1.41.61-.49.22-.98.45-1.47.68-.02.01-.05.02-.07.02-.24.1-.48.21-.72.32-.26.13-.53.25-.78.39-2.23,1.03-4.41,2.14-6.56,3.3-.39.22-.77.41-1.16.64-.59.31-1.16.64-1.73.98-.62.34-1.21.71-1.81,1.07-.09.07-.21.13-.3.18-.37.22-.76.44-1.13.68-.47.3-.98.59-1.45.91-.02,0-.05.01-.07.02-.01.01-.03.02-.05.02-.24.15-.47.31-.7.46-.22.15-.44.29-.64.45-1.01.62-2.01,1.31-3,1.99-.83.57-1.64,1.16-2.45,1.75-.36.24-.7.49-1.06.76v.01c-.03.02-.07.06-.1.08-.07.05-.14.09-.21.15-.1.07-.21.15-.31.23-2.94,2.22-5.8,4.55-8.58,7.02-.86.76-1.71,1.53-2.54,2.32-.03.02-.06.06-.09.07-.59.57-1.19,1.13-1.77,1.71l-.46.46c-.11.1-.23.22-.33.33-.05.05-.09.08-.13.11-.06.03-.09.07-.13.13-3.66,3.61-7.17,7.48-10.51,11.58-.68.83-1.37,1.68-2.01,2.53-.16.2-.31.42-.47.62-.69.87-1.37,1.73-2,2.62-.96,1.3-1.93,2.63-2.87,3.97-2.06,2.96-3.99,5.96-5.79,9-.64,1.06-1.27,2.15-1.86,3.24-.68,1.21-1.34,2.42-1.98,3.64-.56,1.08-1.11,2.19-1.65,3.27-1.08,2.25-2.1,4.51-3.06,6.79-.22.54-.46,1.09-.67,1.64-.47,1.18-.93,2.34-1.34,3.51-.41,1.09-.8,2.19-1.17,3.27c0,.01,0,.01,0,.02-.4,1.21-.79,2.4-1.18,3.59-.06.2-.1.38-.16.55-.36,1.16-.68,2.32-1,3.49-.34,1.27-.68,2.56-.99,3.87-.3,1.25-.59,2.5-.85,3.76-.02.03-.02.09-.02.13-.25,1.22-.49,2.45-.71,3.69-.06.18-.07.37-.11.56-.42,2.43-.79,4.88-1.07,7.36-.05.31-.09.63-.1.94-.11,1.1-.22,2.23-.33,3.33-.16,1.93-.3,3.88-.39,5.83-.03.98-.07,1.95-.09,2.93-.06,1.78-.06,3.57-.01,5.38-.02.59,0,1.17.01,1.77.05,1.3.08,2.63.15,3.93c0,0,0,0,0,.02c0,.07.01.14.01.21.15,2.47.33,4.96.57,7.47.18,1.84.4,3.66.65,5.47c0,.01,0,.01,0,.02.21,1.52.45,3.01.71,4.49.05.31.09.61.15.92.2,1.19.44,2.39.68,3.57.33,1.56.68,3.12,1.05,4.7.85,3.49,1.83,6.93,2.94,10.31c4.81,14.71,12.13,28.44,21.89,41.12c17.16,22.27,38.98,38.3,65.83,47.23c4.54,1.52,9.07,2.77,13.62,3.79c1.37.32,2.72.6,4.11.85.15.03.32.07.49.09h.03l15.03-10.08l8.82-5.91.07-.05.02-.02c0-.4,0-.83-.01-1.23c0-.85-.01-1.69-.03-2.53-.01-.42-.02-.85-.03-1.27c0-.01,0-.01,0-.02c0-.4-.02-.82-.03-1.22-.01-.18,0-.34.02-.52c0-.21,0-.44.03-.62c0-.01,0-.01,0-.02c0-.07.02-.15.03-.22.01-.03.01-.06.01-.08s0-.05.02-.07c0-.01,0-.03.01-.05c0-.03.01-.07.03-.1c0-.02.01-.03.01-.05v-.01c0-.01,0-.01,0-.02s0-.03.02-.05c-.01-.01,0-.01,0-.02.03-.15.09-.25.16-.37.03-.07.08-.14.15-.2.05-.08.11-.16.2-.21.05-.06.09-.08.14-.11.02-.02.05-.05.08-.06.06-.05.13-.09.18-.13.07-.05.16-.09.25-.13.08-.02.17-.06.25-.08.21-.05.41-.09.65-.13.29-.03.59-.03.92-.03c3.64.06,7.27.15,10.91.16l10.97-7.36c-3.3-.01-6.59-.01-9.89-.01-3.89,0-7.8,0-11.7-.02-.67,0-1.46.07-2.11-.08-.16-.03-.32-.08-.46-.15-.06-.03-.11-.06-.16-.09-.2-.13-.36-.3-.47-.53-.03-.07-.06-.14-.08-.21-.09-.24-.13-.54-.11-.91v-.2c0-.23-.02-.42-.03-.61-.02-.23-.06-.43-.11-.6c0-.01,0-.01,0-.02-.01-.06-.03-.1-.06-.15-.01-.07-.03-.13-.07-.2-.06-.16-.15-.3-.24-.42-.07-.09-.16-.21-.26-.28-.07-.07-.14-.13-.22-.16-.06-.06-.13-.09-.18-.11-.07-.06-.16-.11-.28-.13-.13-.06-.25-.09-.38-.13-.09-.05-.17-.06-.26-.08-.15-.03-.3-.06-.46-.07-.24-.02-.44-.06-.68-.08-.26-.01-.54-.03-.82-.05-1.26-.08-2.54-.17-3.79-.28-1.1-.1-2.23-.21-3.33-.36-.48-.06-.95-.11-1.44-.18-.88-.11-1.77-.24-2.63-.39-.83-.13-1.64-.25-2.45-.44-.41-.06-.79-.13-1.18-.21-.06,0-.13-.02-.2-.03-.06-.02-.11-.03-.18-.06-.52-.1-1.03-.22-1.55-.33-.06,0-.11-.01-.18-.03-.63-.13-1.27-.28-1.88-.44-.69-.17-1.39-.36-2.08-.54-.55-.13-1.1-.29-1.63-.44-.28-.08-.55-.15-.82-.23-.26-.08-.54-.16-.8-.24-.17-.06-.33-.1-.49-.15-.08-.03-.16-.06-.24-.08-.17-.06-.33-.11-.51-.17-.44-.14-.9-.29-1.36-.44-.72-.25-1.42-.49-2.14-.76-1.25-.46-2.5-.93-3.73-1.45-.64-.26-1.3-.54-1.92-.79-.47-.21-.94-.41-1.4-.62-.94-.42-1.87-.87-2.79-1.33-.46-.23-.93-.46-1.39-.7-.61-.33-1.21-.64-1.81-.98-1.22-.64-2.43-1.34-3.61-2.04-.61-.37-1.21-.71-1.79-1.08-.64-.41-1.29-.82-1.91-1.24-1.13-.71-2.23-1.47-3.34-2.26-.56-.4-1.14-.83-1.71-1.25-.56-.4-1.14-.84-1.69-1.29-.53-.4-1.07-.83-1.6-1.25-1.15-.92-2.29-1.86-3.41-2.84-3.4-2.96-6.57-6.14-9.48-9.5-1.01-1.16-1.99-2.33-2.93-3.55-1.8-2.26-3.48-4.59-5.04-7.01-.24-.37-.47-.72-.71-1.09c0-.01-.01-.01-.01-.02-.23-.37-.46-.75-.68-1.11-1.38-2.25-2.66-4.55-3.86-6.9-.39-.76-.76-1.53-1.13-2.31-1.13-2.37-2.16-4.77-3.09-7.21-.46-1.22-.91-2.43-1.32-3.68-.41-1.23-.8-2.48-1.17-3.72-.24-.83-.47-1.65-.7-2.5-.2-.73-.38-1.48-.56-2.22-.14-.54-.26-1.07-.37-1.61-.11-.52-.23-1.03-.33-1.54-.64-3.08-1.15-6.19-1.49-9.31-.06-.63-.13-1.25-.18-1.9-.09-.88-.16-1.77-.21-2.65-.05-.64-.09-1.31-.1-1.95-.03-.67-.08-1.31-.08-1.95-.01-.88-.03-1.75-.03-2.61c0-10.65,1.7-21.32,5.18-31.56c1.83-5.36,4.15-10.62,6.97-15.69.56-1.02,1.14-2.03,1.72-3.01.3-.49.61-.98.91-1.46s.6-.96.9-1.45c.61-.95,1.25-1.9,1.92-2.81c0-.02,0-.02,0-.02.64-.92,1.31-1.84,1.98-2.73.69-.91,1.38-1.8,2.08-2.68c1.86-2.32,3.8-4.56,5.85-6.68.28-.28.54-.55.79-.8.92-.94,1.84-1.86,2.78-2.72.17-.17.36-.33.52-.48.88-.83,1.77-1.64,2.69-2.41.02-.03.06-.06.07-.07.98-.85,1.95-1.65,2.96-2.45.08-.08.15-.14.23-.18.52-.42,1.05-.83,1.58-1.22.17-.13.33-.25.51-.38.18-.14.38-.29.57-.42.17-.13.34-.26.52-.39.64-.48,1.29-.94,1.93-1.38.02-.02.03-.05.08-.06.51-.37,1.02-.72,1.56-1.06.29-.2.59-.4.88-.59.53-.34,1.08-.7,1.63-1.03c2.54-1.58,5.16-3.06,7.84-4.38.61-.31,1.22-.61,1.84-.88.29-.15.59-.3.88-.44.28-.13.54-.25.82-.37.3-.13.59-.28.88-.39.02-.01.05-.02.07-.02.39-.18.78-.34,1.17-.52.02,0,.05-.01.07-.02.25-.1.51-.21.76-.31.14-.07.29-.11.44-.17.3-.15.59-.25.88-.37.86-.36,1.75-.68,2.63-1c.11-.06.22-.09.36-.13c1.11-.4,2.24-.79,3.38-1.14.59-.18,1.16-.37,1.75-.54.15-.05.3-.09.45-.13.76-.23,1.5-.44,2.26-.63.65-.17,1.32-.34,1.98-.51.21-.06.41-.1.62-.15.02-.01.05-.02.07-.02c1.07-.26,2.14-.49,3.2-.7.71-.15,1.46-.3,2.19-.42c1.01-.18,2.02-.33,3.03-.48.18-.02.36-.06.54-.07.28-.05.55-.09.83-.11.23-.03.45-.07.68-.09.68-.1,1.36-.18,2.04-.23c1.36-.17,2.74-.28,4.12-.36c1.38-.09,2.76-.15,4.13-.16c1.58-.05,3.17-.05,4.77.01.52.02,1.03.05,1.55.08.39-.02.77,0,1.16.06.7.01,1.41.05,2.11.13c1.27.09,2.54.2,3.81.34c1.27.15,2.54.31,3.81.52.84.11,1.69.24,2.54.42.85.13,1.69.3,2.52.48.05-.02.08,0,.09.01.79.17,1.58.33,2.4.52.88.18,1.75.4,2.63.63.16.03.33.07.49.1.84.18,1.49.21,2.02.06.1-.02.21-.06.29-.1.14-.05.25-.11.37-.21.38-.29.65-.74.87-1.34.13-.37.23-.78.32-1.25.93-5.05,1.89-10.11,2.85-15.16.09-.45.18-.88.26-1.33.53-2.73,1.06-5.48,1.6-8.25.28-1.36.55-2.73.83-4.12.13-.68.25-1.36.4-2.03c0-.01,0-.01,0-.02.06-.33.13-.68.2-1.01.07-.36.15-.7.22-1.03c0-.01,0-.01,0-.02.02-.13.05-.24.08-.37.02-.13.03-.24.05-.36.12-.64.1-1.2-.05-1.66Zm105,129.47c-.03-1.32-.09-2.66-.16-4c0-.05-.02-.1,0-.16-.08-1.14-.15-2.29-.24-3.42-.03-.46-.08-.92-.13-1.38-.06-.74-.14-1.47-.23-2.19-.03-.48-.09-.95-.14-1.44-.11-.94-.23-1.86-.36-2.79-.03-.29-.07-.56-.13-.84-.15-1.17-.36-2.37-.55-3.55-.17-1.01-.36-2.02-.55-3.02-.08-.4-.15-.83-.24-1.23-.24-1.13-.48-2.25-.74-3.37-.18-.78-.37-1.55-.55-2.31-.21-.77-.39-1.54-.61-2.3-.42-1.6-.88-3.18-1.38-4.74-.33-1.09-.69-2.17-1.06-3.24-.23-.7-.47-1.4-.74-2.1-.18-.55-.38-1.13-.61-1.68-1.9-5.06-4.1-9.99-6.63-14.79-.38-.76-.78-1.52-1.21-2.26-.42-.76-.83-1.52-1.27-2.27-1.56-2.73-3.24-5.44-5.01-8.1-1.29-1.93-2.63-3.85-4.03-5.74-.55-.75-1.13-1.48-1.69-2.23-.52-.65-1.03-1.32-1.56-1.99-.55-.7-1.11-1.39-1.68-2.08-3.61-4.4-7.51-8.65-11.75-12.81l-.01-.02c-.06.09-.09.21-.13.32-.17.37-.3.71-.39,1.07-.09.32-.15.64-.18.95-.02.16-.03.34-.06.52-.02.16-.02.33-.03.49-.67,12.81-1.22,25.63-2.01,38.45-.74,11.92-3.46,23.87,1,35.65.15.37.28.77.38,1.16.32,1.17.52,2.42.63,3.62.03.39.03.82-.02,1.24c0,.06,0,.13-.01.18c0,.07-.01.13-.02.18-.01.13-.03.25-.07.37-.05.22-.11.44-.21.62-.09.18-.21.36-.31.52-.88,1.06-1.8,2.08-2.77,3.11-.62.68-1.29,1.38-1.96,2.1-.67.7-1.37,1.44-2.08,2.18-.36.39-.72.78-1.09,1.16-1.08-1.87-2.15-3.42-2.94-5.05-.11-.24-.22-.48-.31-.72-.09-.2-.18-.38-.28-.55-.14-.22-.26-.42-.39-.59-.07-.11-.15-.18-.24-.28-.13-.15-.25-.26-.4-.37-.03-.03-.06-.06-.09-.06-.11-.08-.22-.13-.33-.18-.06-.03-.11-.06-.15-.06-.13-.06-.25-.09-.38-.11-.6-.13-1.27-.07-2.08.11-4.05.91-8.12,1.8-12.19,2.66-4.08.88-8.14,1.73-12.22,2.55-17.16,3.47-34.05,8.74-51.95,7.28-.38-.03-.75-.07-1.1-.13-.37-.03-.7-.11-1.03-.18-.31-.07-.62-.15-.92-.25-.47-.17-.92-.36-1.34-.6-.34-.2-.68-.42-.99-.7-.57-.44-1.09-.99-1.57-1.69-2.24-3.18-4.49-6.39-6.75-9.57-2.26-3.19-4.56-6.32-6.95-9.41-2.22-2.87-2.37-5.4-1.21-8.76c5.12-14.84,9.98-29.78,14.91-44.69.56-1.64.72-2.5.29-2.94-.06-.06-.11-.11-.21-.15c0-.02-.02-.02-.02-.02-.14-.07-.34-.13-.59-.15-.46-.09-1.09-.09-1.92-.05-.2,0-.4.01-.6.03-.21,0-.42.01-.63.03-2.8.31-5.52.71-8.18,1.27-1.76.32-3.51.71-5.23,1.15-1.69.45-3.38.93-5.02,1.46-1.65.52-3.27,1.09-4.86,1.71-1.58.63-3.14,1.29-4.66,1.99-.83.39-1.63.79-2.45,1.19-.44.23-.86.45-1.29.69-.62.31-1.25.65-1.87,1.02-1.42.79-2.83,1.67-4.18,2.56-.57.37-1.14.76-1.71,1.16-.72.49-1.44,1-2.14,1.55-.42.29-.83.61-1.23.93-1.37,1.07-2.71,2.18-4,3.35-.55.49-1.1,1-1.64,1.52-1.91,1.81-3.77,3.77-5.54,5.82-.45.52-.88,1.03-1.31,1.57-.11.13-.22.25-.33.4-.47.57-.94,1.16-1.4,1.77-1.07,1.38-2.11,2.81-3.1,4.31-.28.38-.55.79-.79,1.19-.51.71-.96,1.46-1.42,2.19-.49.77-.95,1.56-1.4,2.35-.31.49-.6.99-.87,1.5-.41.7-.79,1.4-1.18,2.11-.08.16-.16.33-.24.49-.07.16-.16.32-.24.48-1.1,2.29-1.95,4.79-3.15,7.68v.01h4.4c3.96-.03,7.91-.06,11.88-.09c11.85-.07,23.73-.15,35.58-.28h.22c.25,0,.52.02.74.03.25.02.52.06.74.11.24.03.46.11.68.18.36.13.7.3,1.01.49.11.08.23.15.33.24.37.28.7.63,1.06,1.03.1.15.23.31.37.49c4.56,6.59,9.26,13.07,13.93,19.57.42.6.79,1.1,1.05,1.54.21.3.33.55.45.78.25.49.32.9.2,1.21-.03.11-.07.21-.15.3-.13.18-.32.34-.62.49-.24.15-.54.28-.86.4-.26.11-.55.21-.88.32-.11.05-.26.09-.39.13-.13.03-.28.07-.42.13-1.95.64-3.92,1.25-5.87,1.88-3.9,1.23-7.82,2.48-11.73,3.77-.49.16-.98.32-1.47.48-1.46.48-2.92.98-4.36,1.47-.86.3-1.62.46-2.33.46-.17,0-.36,0-.52-.03-.92-.09-1.8-.48-2.77-1.22-12.55-9.6-25.19-19.1-37.82-28.62-1.01-.76-2.14-1.34-3.51-2.21-.31,1.07-.62,2.11-.9,3.17-.28,1.05-.54,2.09-.78,3.15v.01c-.23,1.07-.46,2.11-.65,3.17-.17.88-.32,1.77-.46,2.65-.08.4-.14.78-.18,1.19-.09.65-.18,1.32-.26,1.99-.03.33-.09.65-.11.98-.09.83-.16,1.68-.23,2.5-.06.77-.11,1.54-.15,2.32-.02.37-.02.75-.03,1.11-.05.91-.06,1.8-.06,2.71c0,.7.01,1.4.03,2.11c0,.54.02,1.07.06,1.61.03.83.09,1.67.16,2.49.06.82.13,1.64.24,2.47.06.54.11,1.07.21,1.61.16,1.38.38,2.76.65,4.13.09.57.21,1.15.33,1.7.33,1.58.72,3.16,1.16,4.73.15.56.31,1.15.49,1.72.2.67.41,1.34.63,2.02.22.67.44,1.34.7,2.01.22.68.48,1.34.74,2.02.25.67.52,1.33.79,2.01.28.67.57,1.32.86,2.01c1.75,3.95,3.76,7.73,6.04,11.28.57.88,1.16,1.77,1.77,2.63.61.87,1.23,1.71,1.87,2.54.32.42.64.85.98,1.26c1,1.24,2.03,2.45,3.09,3.64c3.42,3.79,7.29,7.28,11.61,10.51.69-1.88,1.22-3.2,1.62-4.55c4.08-13.44,8.14-26.85,12.14-40.31.8-2.69,1.6-5.38,2.39-8.06.01-.03.02-.07.05-.1c0-.03.02-.07.03-.09.07-.21.13-.39.21-.57.06-.15.14-.29.21-.44.08-.15.15-.28.22-.41.02-.01.02-.03.05-.05.14-.26.32-.51.51-.72.02-.03.06-.06.09-.09.05-.03.08-.09.11-.1.03-.06.07-.1.11-.11.22-.24.47-.42.77-.61.11-.07.22-.13.33-.18.13-.07.28-.15.42-.21.29-.13.62-.23.98-.34c2.85-.86,5.66-1.8,8.48-2.76c2.84-.96,5.64-1.92,8.48-2.84.56-.18,1.16-.37,1.75-.55.86-.28,1.73-.54,2.62-.8.9-.26,1.79-.53,2.72-.8.83-.24,1.67-.49,2.52-.75c0,11.19.06,21.84-.07,32.48-.02.88-.76,1.96-1.53,2.63-.11.09-.23.18-.33.26-4.04,2.96-8.09,5.9-12.13,8.85-1.36.98-2.7,1.95-4.05,2.94-5.41,3.92-10.82,7.82-16.22,11.74-3.42,2.5-6.82,5.06-10.61,7.88c1.5,1.13,2.42,1.92,3.42,2.56.68.44,1.36.86,2.06,1.29c1.38.83,2.78,1.62,4.2,2.35.71.37,1.44.72,2.14,1.05.71.36,1.44.69,2.17,1c1.08.48,2.17.92,3.27,1.34.64.25,1.29.49,1.93.71.83.3,1.68.6,2.53.85c1.69.54,3.4,1.01,5.13,1.44.86.22,1.72.4,2.61.59.87.2,1.76.36,2.64.52c1.06.18,2.12.36,3.22.51.76.1,1.5.2,2.29.28.55.09,1.1.14,1.65.2.39.05.74.08,1.08.09.36.03.69.06,1,.09c1.55.11,2.65.17,3.48.09.24-.03.46-.07.64-.1.71-.17,1.09-.54,1.26-1.18.05-.13.08-.25.1-.4.16-1.1,0-2.84,0-5.44c0-23.23-.1-46.45-.26-69.65c0-.52.02-.98.07-1.39.05-.25.09-.47.15-.68.05-.1.08-.21.11-.29.07-.2.16-.36.28-.48.15-.15.3-.3.49-.42.15-.09.31-.16.51-.21.1-.03.2-.07.32-.09.45-.09,1.01-.13,1.7-.09c5.83.28,11.7.23,17.56.14h.29c.26,0,.49.01.74.05.28.02.54.06.79.14.11.01.22.03.33.09.21.03.39.1.57.2.16.08.33.15.47.26.15.07.28.16.41.28.14.07.25.18.38.31.14.11.26.24.36.37.03.03.06.06.09.09.09.11.2.24.28.37.06.07.1.13.15.21.1.14.2.31.29.49.11.21.23.42.33.64.06.11.13.24.21.34.22.36.49.7.8,1.03.21.22.42.42.67.61.22.18.48.37.74.52.17.1.33.18.49.26.01,0,.01.01.01.01.17.08.33.15.49.21.29.1.62.2.93.28c1.46.46,2.92.83,4.39,1.14.22.05.42.09.63.14.09.02.2.05.29.07l.33.05c.47.11.95.18,1.44.26.59.11,1.17.18,1.77.28c1.17.16,2.37.3,3.55.4c4.87.45,9.79.39,14.72.17.7-.05,1.41-.08,2.1-.14.69-.03,1.39-.1,2.08-.18.34-.03.68-.07,1.02-.1.36-.03.7-.08,1.03-.13.67-.08,1.31-.18,1.95-.3c2.14-.37,4.22-.86,6.24-1.55.42-.13.87-.28,1.29-.44c1.67-.61,3.26-1.33,4.81-2.21.18-.11.38-.22.56-.32.1-.07.21-.13.3-.18.59-.34,1.14-.71,1.71-1.1.46-.31.92-.64,1.38-1.01.36-.28.72-.57,1.07-.88.28-.21.55-.44.82-.68.25-.22.52-.48.77-.74s.52-.52.77-.76c.31-.31.61-.64.91-.98.2-.22.4-.44.59-.67.22-.28.48-.55.74-.8.08-.09.15-.18.24-.28.02-.02.05-.05.07-.07s.05-.05.06-.08h.02c.37-.4.76-.79,1.17-1.18.39-.38.82-.77,1.25-1.16c2.12-1.9,4.42-3.68,6.66-5.69.23.32.42.54.6.72.07.1.16.18.22.28.02.01.02.03.03.06.02.02.03.05.06.07.01.02.03.05.03.06.06.03.08.07.09.1c0,.05.02.06.02.09c0,.02.01.05.01.06.55,2.19,1.11,4.39,1.58,6.56.21.88.39,1.75.55,2.61.3,1.48.55,2.95.76,4.4.44,3.14.64,6.25.49,9.34-.03.7-.09,1.41-.16,2.11-.09.92-.22,1.84-.4,2.74-.15.86-.36,1.71-.57,2.56-.03.1-.06.22-.09.32-.13.42-.24.84-.39,1.24-.92,2.84-2.26,5.65-4.13,8.44-2.07,3.08-4.09,6.17-6.11,9.28-4.49,6.97-8.88,14.05-13.33,21.05-.74,1.18-1.47,2.35-2.22,3.51s-1.49,2.34-2.25,3.5c-.22.33-.4.67-.61.99-.33.54-.67,1.07-.99,1.61-.11.2-.23.38-.33.59-.08.09-.11.17-.17.26-.25.41-.47.84-.71,1.25s-.46.84-.7,1.26c-.02.02-.02.02-.02.02-.07.13-.13.25-.2.38-.08.14-.14.26-.21.39h.02l69.42-46.58c1.16-5.74,1.95-11.65,2.35-17.72.24-3.51.36-6.99.36-10.44-.05-1.24-.08-2.58-.11-3.93ZM263.04,1091.75c-.29-.02-.56-.03-.84-.06.28.03.55.06.84.07.39.02.76.05,1.15.06-.4-.03-.76-.05-1.15-.07Zm-2.39-.36c.28.09.55.16.85.22.24.03.46.07.7.09-.54-.07-1.07-.16-1.55-.31Zm-1.6-.75c.07.05.13.09.2.14.09.06.18.1.29.15-.17-.09-.34-.19-.49-.29Zm-11.62,5.34c2.07-.01,4.12-.09,6.19-.23-2.08.13-4.15.2-6.19.23Zm-28.12-2.39c-.01,0-.01,0-.02,0l-.02.02c.01,0,.01,0,.02,0c.09.02.18.03.28.06.51.08,1.01.18,1.52.28-.61-.12-1.2-.24-1.78-.36Zm90.33-13.84c.95-.46,1.93-.94,2.88-1.44.94-.48,1.86-.98,2.78-1.49.15-.07.28-.15.41-.22.79-.44,1.56-.88,2.33-1.34.7-.4,1.4-.83,2.1-1.27.55-.34,1.1-.69,1.65-1.05.7-.44,1.4-.92,2.1-1.38.62-.42,1.25-.85,1.87-1.31.61-.4,1.22-.85,1.83-1.29c3.81-2.76,7.55-5.81,11.19-9.14.7-.61,1.38-1.24,2.04-1.88c1.53-1.44,3.04-2.93,4.49-4.47.61-.61,1.19-1.24,1.79-1.88.77-.83,1.54-1.68,2.3-2.52.86-.98,1.71-1.95,2.54-2.96c1.4-1.64,2.74-3.33,4.05-5.06.71-.92,1.41-1.86,2.09-2.81.54-.72,1.06-1.46,1.55-2.19.86-1.19,1.68-2.41,2.47-3.64.61-.91,1.19-1.83,1.76-2.77.14-.18.24-.38.36-.56.57-.92,1.13-1.85,1.65-2.78.61-1.03,1.22-2.08,1.79-3.15.33-.6.65-1.21.98-1.8.63-1.21,1.25-2.42,1.86-3.65.31-.62.61-1.24.91-1.87.41-.83.78-1.68,1.16-2.53.26-.56.52-1.13.76-1.69.74-1.7,1.44-3.42,2.11-5.17.42-1.09.84-2.19,1.24-3.3.06-.11.09-.22.1-.36.41-1.14.82-2.3,1.18-3.46l-68.32,80.43Z" fill="#fff"/><path d="M384.61,956.34c0,3.45-.11,6.93-.36,10.44-.4,6.08-1.19,11.98-2.35,17.72-.34,1.75-.74,3.48-1.17,5.19-.24,1.01-.49,2.02-.78,3.03-.07.33-.16.67-.28.98-.23.92-.49,1.8-.77,2.71-.29.98-.61,1.95-.92,2.91-.37,1.16-.77,2.32-1.18,3.46-.01.14-.05.24-.1.36-.4,1.1-.82,2.21-1.24,3.3-.65,1.75-1.37,3.47-2.11,5.17-.24.56-.49,1.13-.76,1.69-.38.85-.75,1.7-1.16,2.53-.3.63-.6,1.25-.91,1.87-.61,1.23-1.23,2.45-1.86,3.65-.32.6-.64,1.21-.98,1.8-.57,1.07-1.18,2.11-1.79,3.15-.53.93-1.08,1.86-1.65,2.78-.11.18-.22.38-.36.56-.56.94-1.15,1.86-1.76,2.77-.79,1.23-1.61,2.45-2.47,3.64-.49.74-1.01,1.47-1.55,2.19-.68.95-1.38,1.9-2.09,2.81-1.31,1.73-2.65,3.42-4.05,5.06-.83,1.01-1.68,1.99-2.54,2.96-.76.84-1.53,1.69-2.3,2.52-.6.64-1.18,1.27-1.79,1.88-1.45,1.54-2.96,3.03-4.49,4.47-.67.64-1.34,1.27-2.04,1.88-3.64,3.33-7.37,6.39-11.19,9.14-.61.44-1.22.88-1.83,1.29-.62.46-1.25.88-1.87,1.31-.7.46-1.4.94-2.1,1.38-.55.36-1.1.7-1.65,1.05-.7.45-1.4.87-2.1,1.27-.77.46-1.54.91-2.33,1.34-.14.07-.26.15-.41.22-.92.52-1.84,1.01-2.78,1.49-.95.49-1.93.98-2.88,1.44-1.07-3.82-2.14-7.57-3.42-12.13v-.02c-.31.3-.63.6-.94.91-.31.3-.64.59-.95.88-1.24,1.17-2.45,2.33-3.66,3.48-2.41,2.27-4.77,4.5-7.18,6.79-.61.57-1.22,1.14-1.83,1.71-1.77-1.71-3.55-3.3-5.23-4.97-.55-.55-1.1-1.1-1.62-1.67-.16-.2-.33-.38-.52-.56l-.28-.28c-.49-.51-.99-.96-1.5-1.41-.26-.22-.52-.44-.78-.62-1.57-1.25-3.27-2.22-5.11-2.87-.3-.14-.61-.23-.92-.32-.28-.1-.57-.18-.86-.25-.08-.02-.15-.03-.24-.06-.26-.07-.54-.13-.79-.16-.64-.15-1.31-.24-1.99-.3-.36-.03-.7-.06-1.07-.07-.94-.06-1.9-.05-2.89.03-.76.06-1.5.09-2.29.15-.01-.02-.03-.02-.07,0-1.5.07-3.03.1-4.56.13-1.24.01-2.49.01-3.72.01-3.64-.01-7.27-.1-10.91-.16-.33,0-.63,0-.92.03-.23.03-.45.08-.65.13-.08.02-.17.06-.25.08-.09.03-.18.08-.25.13-.06.03-.13.08-.18.13-.03.01-.06.03-.08.06-.05.03-.09.06-.14.11-.08.05-.15.13-.2.21-.07.06-.11.13-.15.2-.07.11-.13.22-.16.37c0,.01-.01.01,0,.02-.02.01-.02.03-.02.05-.02.03-.03.07-.03.11-.01.02-.01.05-.01.07-.01.01-.01.03-.01.05-.02.02-.02.05-.02.07s0,.05-.01.08c-.01.07-.03.15-.03.22c0,.01,0,.01,0,.02-.07.32-.09.71-.07,1.14.01.4.03.82.05,1.22c0,.01,0,.01,0,.02.01.42.02.85.03,1.27.02.84.03,1.68.03,2.53c0,.41-.01.84-.01,1.25c0,.01,0,.01,0,.02c0,1.58-.03,3.18-.1,4.77v.34c0,.08,0,.13.01.21-.01.22,0,.42.05.61.01.21.07.41.13.59.1.34.28.64.49.86.01.02.02.05.05.06.03.03.07.06.1.07.09.11.21.18.33.26.06.03.13.07.2.09.01,0,.01,0,.02,0c.02.01.05.01.06.01.1.06.22.09.34.13.11.05.24.06.37.09.37.06.78.08,1.25.06h.02c.09,0,.17-.01.26,0c.55-.02,1.11.01,1.67.06.7.03,1.38.09,2.07.06.18-.02.37-.02.55-.02.32,0,.64.02.93.06.39.03.78.11,1.13.22.17.02.33.08.49.15.17.03.33.11.51.18.09.03.2.08.29.13.23.11.45.23.67.37.15.08.3.17.42.28.29.21.59.45.86.72.17.13.31.28.46.44.22.24.42.51.63.76.18.24.37.46.55.67.2.2.4.38.61.55.14.11.28.22.42.32.15.1.32.2.48.29.13.07.26.14.39.2.23.09.47.18.72.26.48.15,1.01.24,1.55.31.28.02.55.03.84.06.39.01.76.03,1.15.07c1.16.08,2.3.18,3.46.37.39.06.77.11,1.16.18c1.17.21,2.35.46,3.55.79-.77.23-1.53.54-2.3.67-.88.15-1.77.3-2.65.42-.88.15-1.75.25-2.61.38-.84.11-1.67.23-2.5.32-.84.1-1.64.2-2.47.28-1.03.1-2.07.2-3.11.29-1.03.09-2.06.17-3.09.23-2.07.14-4.12.22-6.19.23-.98.03-1.96.05-2.94.02-.22.01-.44.01-.65,0-.52,0-1.03-.01-1.55-.02-.15,0-.3,0-.45-.01-1.58-.02-3.18-.08-4.77-.18-.33,0-.64-.02-.98-.06-1.49-.09-2.97-.21-4.47-.37-.36-.02-.7-.06-1.06-.09-1.53-.16-3.06-.36-4.58-.55-1.02-.15-2.08-.3-3.1-.48-.61-.09-1.21-.2-1.8-.29-.51-.09-1.01-.2-1.52-.28-.09-.02-.18-.03-.28-.06-.01,0-.01,0-.02,0s-.02,0-.03-.01c-.02,0-.05-.01-.07-.01-.13-.03-.28-.07-.4-.09-1.39-.25-2.74-.53-4.11-.85-4.55-1.02-9.08-2.27-13.62-3.79-26.85-8.92-48.67-24.96-65.83-47.23-9.76-12.68-17.08-26.4-21.89-41.12-1.11-3.39-2.09-6.82-2.94-10.31-.37-1.57-.71-3.14-1.05-4.7-.24-1.18-.48-2.38-.68-3.57-.06-.31-.1-.61-.15-.92-.25-1.39-.46-2.8-.67-4.21-.01-.09-.03-.18-.04-.28c0-.01,0-.01,0-.02-.1-.67-.2-1.33-.28-2-.15-1.15-.28-2.31-.39-3.47-.25-2.5-.45-5-.56-7.47c0-.07-.01-.14-.01-.21c0-.02,0-.02,0-.02-.07-1.3-.1-2.63-.15-3.93-.01-.6-.03-1.18-.01-1.77-.05-1.8-.05-3.59.01-5.38.02-.98.06-1.95.09-2.93.09-1.95.23-3.9.39-5.83.11-1.1.22-2.23.33-3.33.01-.31.06-.63.1-.94.28-2.48.64-4.93,1.07-7.36.05-.2.06-.38.11-.56.22-1.24.46-2.47.71-3.69c0-.03,0-.09.02-.13.26-1.25.55-2.5.85-3.76.31-1.31.64-2.6.99-3.87.32-1.17.64-2.33,1-3.49.06-.17.1-.36.16-.55.39-1.19.78-2.39,1.18-3.59c0-.01,0-.01,0-.02.37-1.08.76-2.18,1.17-3.27.41-1.17.87-2.33,1.34-3.51.21-.55.45-1.1.67-1.64.95-2.27,1.98-4.54,3.06-6.79.54-1.08,1.09-2.19,1.65-3.27.63-1.22,1.3-2.43,1.98-3.64.59-1.09,1.22-2.18,1.86-3.24c1.8-3.04,3.73-6.04,5.79-9c.94-1.34,1.91-2.68,2.87-3.97.63-.88,1.31-1.75,2-2.62.16-.2.31-.42.47-.62.64-.85,1.33-1.7,2.01-2.53c3.34-4.1,6.85-7.97,10.51-11.58.03-.06.07-.09.13-.13.3-.33.61-.63.92-.91.57-.59,1.18-1.14,1.77-1.71.03-.01.06-.05.09-.07.83-.79,1.68-1.56,2.54-2.32c2.78-2.47,5.64-4.8,8.58-7.02.1-.08.21-.16.31-.23.07-.06.14-.1.21-.15.03-.03.07-.07.1-.09.36-.26.7-.52,1.06-.76.8-.59,1.62-1.17,2.45-1.75.99-.68,1.99-1.37,3-1.99.22-.14.42-.28.64-.42s.44-.29.64-.42c.02-.02.06-.03.09-.05.02-.02.06-.05.08-.06.47-.32.98-.61,1.45-.91.37-.24.76-.46,1.13-.68.09-.06.21-.11.3-.18.61-.36,1.19-.72,1.81-1.07.57-.33,1.15-.67,1.73-.98.39-.23.77-.42,1.16-.64c2.15-1.16,4.33-2.26,6.56-3.3.25-.14.52-.26.78-.39.24-.11.48-.22.72-.32.02,0,.05-.01.07-.02.49-.23.98-.46,1.47-.68.47-.22.94-.41,1.41-.61.98-.42,1.95-.83,2.92-1.22.14-.06.26-.1.39-.15.86-.34,1.73-.68,2.6-.99.02-.01.05-.01.07-.02s.05-.01.06-.02c.01,0,.01-.01.02-.01.3-.11.61-.22.91-.33.02-.01.05-.01.07-.02.31-.11.61-.23.92-.33.01,0,.02-.01.03-.01.45-.16.91-.31,1.34-.46.18-.07.37-.13.55-.18l.92-.31c1.06-.36,2.1-.69,3.15-1c.52-.16,1.06-.31,1.57-.46c1.96-.59,3.95-1.1,5.96-1.6.02-.01.05-.02.07-.02.7-.17,1.4-.33,2.1-.48.26-.06.53-.13.79-.18.31-.08.63-.15.95-.22.08-.02.16-.03.25-.06.07-.01.13-.03.2-.05.1-.02.21-.05.31-.06.14-.03.28-.06.42-.09.1-.02.2-.05.3-.06.22-.05.44-.09.65-.14.59-.13,1.16-.23,1.75-.34.15-.03.31-.06.46-.09.28-.05.54-.09.82-.15.07-.01.13-.02.2-.03.29-.06.57-.1.86-.15.98-.16,1.95-.33,2.95-.48l1.69-.25c.32-.05.65-.09.98-.13c1.46-.21,2.91-.39,4.39-.55.88-.09,1.78-.18,2.68-.26.21-.02.41-.03.62-.06.15-.01.31-.03.47-.05.08-.01.17-.01.25-.02.85-.07,1.71-.14,2.56-.21c1.88-.1,3.76-.2,5.64-.23c3.4-.08,6.81-.02,10.19.18c3.89.22,7.78.6,11.66,1.17.87.14,1.75.26,2.62.41.87.14,1.73.28,2.61.44.87.16,1.75.33,2.62.52.87.17,1.73.36,2.61.55.3.07.57.15.83.22.63.18,1.15.4,1.55.7.08.05.16.1.23.16.02.02.03.03.06.06.17.13.3.28.41.42.09.13.16.28.24.42.02.06.05.13.07.2s.05.13.06.2c.15.46.17,1.02.09,1.7-.01.11-.02.23-.05.36-.02.11-.05.25-.07.37c0,.01,0,.01,0,.02-.11.61-.24,1.23-.38,1.85-.01.07-.02.13-.05.2c0,.01,0,.01,0,.02-.15.68-.28,1.36-.4,2.03-.28,1.39-.55,2.77-.83,4.12-.54,2.77-1.07,5.51-1.6,8.25-.08.45-.17.88-.26,1.33-.95,5.05-1.92,10.11-2.85,15.16-.09.47-.2.88-.32,1.25-.22.61-.49,1.06-.87,1.34-.11.09-.23.16-.37.21-.08.05-.18.08-.29.1-.53.15-1.18.13-2.02-.06-.16-.03-.33-.07-.49-.1-.88-.23-1.75-.45-2.63-.63-.79-.21-1.58-.37-2.4-.52-.01-.01-.05-.03-.09-.01-.83-.18-1.67-.36-2.52-.48-.85-.18-1.7-.31-2.54-.42-1.27-.21-2.54-.37-3.81-.52s-2.54-.25-3.81-.34c-.7-.08-1.41-.11-2.11-.13-.39-.06-.77-.08-1.16-.06-.52-.06-1.03-.06-1.55-.08-1.6-.06-3.18-.06-4.77-.01-1.38.01-2.76.07-4.13.16-1.38.08-2.77.18-4.12.36-.69.05-1.37.13-2.04.23-.68.06-1.37.17-2.04.28-1.01.15-2.02.3-3.03.48-.74.13-1.48.28-2.19.42-1.07.21-2.14.44-3.2.7-.02,0-.05.01-.07.02-.21.05-.41.09-.62.15-.44.09-.86.21-1.3.32-.63.16-1.27.33-1.91.52-.34.09-.69.2-1.03.3-.15.03-.3.08-.45.13-.59.17-1.16.36-1.75.54-1.14.34-2.26.74-3.38,1.14-.14.03-.24.07-.36.13-.88.32-1.77.64-2.63,1-.3.11-.59.22-.88.37-.15.06-.3.1-.44.17-.25.09-.51.2-.76.3-.02.01-.05.01-.07.02v.01c-.39.17-.78.33-1.17.52-.02,0-.05.01-.07.02-.3.11-.59.26-.88.39-.28.11-.54.24-.82.37-.3.14-.6.29-.88.44-.62.28-1.23.57-1.84.88-2.69,1.32-5.31,2.79-7.84,4.38-.55.33-1.1.69-1.63,1.03-.3.18-.6.39-.88.59-.54.33-1.06.69-1.56,1.06-.05.01-.06.03-.08.06-.64.44-1.29.9-1.93,1.38-.21.14-.41.29-.62.43-.13.09-.26.19-.39.29-.21.15-.41.31-.59.47-.54.39-1.07.79-1.58,1.22-.08.05-.15.1-.23.18-1.01.79-1.99,1.6-2.96,2.45-.01.01-.05.03-.07.07-.92.77-1.8,1.58-2.69,2.41-.16.15-.34.31-.52.48-.94.86-1.86,1.78-2.78,2.72-.25.25-.52.53-.79.8-2.04,2.12-3.99,4.36-5.85,6.68-.7.87-1.39,1.77-2.08,2.68-.67.9-1.33,1.81-1.98,2.73c0,0,0,0,0,.02-.15.22-.3.42-.44.64-.33.48-.67.96-.99,1.46-.34.52-.69,1.06-1.02,1.58-.13.2-.24.38-.37.57-.3.48-.61.96-.91,1.46-.59.98-1.16,1.99-1.72,3.01-2.83,5.07-5.15,10.33-6.97,15.69-3.48,10.24-5.18,20.91-5.18,31.56c0,.86.02,1.72.03,2.61c0,.64.05,1.29.08,1.95.01.64.06,1.31.1,1.95.05.88.11,1.77.21,2.65.06.64.13,1.26.18,1.9.34,3.12.85,6.24,1.49,9.31.1.51.22,1.02.33,1.54.1.54.23,1.07.37,1.61.18.74.37,1.48.56,2.22.23.85.46,1.68.7,2.5.37,1.24.76,2.49,1.17,3.72.41,1.24.86,2.46,1.32,3.68.93,2.45,1.96,4.85,3.09,7.21.37.78.74,1.55,1.13,2.31c1.19,2.35,2.48,4.65,3.86,6.9.46.75.92,1.48,1.4,2.23c1.56,2.41,3.24,4.74,5.04,7.01.94,1.22,1.92,2.39,2.93,3.55c2.91,3.35,6.08,6.54,9.48,9.5c1.13.98,2.26,1.92,3.41,2.84.53.42,1.07.85,1.6,1.25.55.45,1.13.86,1.69,1.29.57.42,1.15.85,1.71,1.25c1.11.79,2.22,1.55,3.34,2.26.62.42,1.26.83,1.91,1.24.59.37,1.18.71,1.79,1.08c1.17.7,2.39,1.4,3.61,2.04.61.33,1.21.64,1.81.98.79.4,1.58.79,2.37,1.17.24.12.48.23.72.35.82.39,1.65.77,2.48,1.14.62.25,1.27.53,1.92.79c1.23.52,2.48.99,3.73,1.45.71.26,1.41.51,2.14.76.46.15.92.3,1.36.44.42.14.83.24,1.24.38.53.16,1.08.32,1.62.49.53.15,1.08.31,1.63.44.69.18,1.39.37,2.08.54.63.15,1.25.29,1.88.44.07.02.13.03.18.03.52.11,1.03.23,1.55.33.51.11,1.05.21,1.56.3.8.16,1.62.31,2.45.44.86.15,1.75.28,2.63.39.48.07.95.13,1.44.18c1.1.13,2.21.25,3.33.36c1.25.1,2.53.2,3.79.28.28.01.55.03.82.05.24.02.44.06.68.08.16.01.31.03.46.07.09.02.17.03.26.08.13.03.25.07.38.13.11.01.21.07.28.13.06.02.13.06.18.11.08.03.15.09.22.16.1.07.2.18.26.28.09.13.18.26.24.42.03.07.06.13.07.2.02.05.05.09.06.15c0,.01,0,.01,0,.02.06.17.09.37.11.6.01.18.03.38.03.61v.2c-.01.37.02.67.11.91.02.07.05.14.08.21.11.23.28.4.47.53.05.03.1.06.16.09.14.07.3.11.46.15.65.15,1.45.08,2.11.08c3.9.02,7.81.02,11.7.02h11.71c.57,0,1.15,0,1.72-.01c1.37-.02,2.74-.07,4.12-.07.78,0,1.55.02,2.32.06.77.03,1.53.09,2.3.18.21.02.42.08.65.11.2.06.41.13.64.2.18.08.37.15.55.23.24.1.47.24.71.37.42.24.83.49,1.18.79.18.14.37.29.53.46.17.15.31.31.46.47.74.84,1.4,1.71,2.03,2.64.41.62.83,1.25,1.23,1.9.3.46.59.93.86,1.41.3.48.6.95.88,1.44.11.18.22.33.31.48.09.1.2.22.28.29.21.21.39.36.6.42.33.13.65.11,1.02-.09.3-.1.61-.34.94-.68c3.26-3.27,6.62-6.47,9.8-9.81.15-.15.25-.33.37-.52.03-.03.06-.08.07-.13.08-.15.15-.3.23-.46.07-.24.16-.48.22-.72.1-.43.16-.85.2-1.25.15-1.95.41-3.86.72-5.75.16-.94.33-1.88.53-2.83.41-1.86.88-3.7,1.42-5.5.28-.9.56-1.8.88-2.69.22-.64.46-1.29.7-1.93.16-.42.31-.83.49-1.25.28-.7.56-1.4.86-2.1.79-1.8,1.65-3.61,2.6-5.35h.02c.05-.13.13-.25.18-.39.07-.13.13-.25.2-.38c0,0,0,0,.02-.02.24-.42.46-.85.7-1.26s.46-.84.71-1.25c.06-.09.09-.17.17-.26.1-.21.22-.39.33-.59.32-.54.65-1.07.99-1.61.21-.32.4-.65.63-.99.75-1.16,1.48-2.32,2.23-3.5.75-1.16,1.48-2.33,2.22-3.51c4.46-7.01,8.84-14.08,13.33-21.05c2.02-3.11,4.04-6.2,6.11-9.28c1.87-2.79,3.22-5.6,4.13-8.44.15-.4.26-.82.39-1.24.03-.1.06-.22.09-.32.22-.85.42-1.7.57-2.56.18-.91.31-1.83.4-2.74.07-.7.13-1.41.16-2.11.15-3.09-.06-6.2-.49-9.34-.21-1.45-.46-2.92-.76-4.4-.16-.86-.34-1.72-.55-2.61-.47-2.17-1.03-4.36-1.58-6.56c0-.01-.01-.03-.01-.06-.02-.07-.06-.13-.11-.2c0-.01-.02-.03-.03-.06-.02-.02-.03-.05-.06-.07-.01-.02-.01-.05-.03-.06-.06-.09-.15-.17-.22-.28-.17-.18-.37-.4-.6-.72-2.24,2.01-4.54,3.79-6.66,5.69-.44.39-.86.78-1.25,1.16-.41.39-.8.78-1.17,1.18-.03.03-.06.06-.08.08s-.05.05-.07.07c-.09.09-.16.18-.24.28-.25.25-.52.53-.74.8-.18.23-.39.45-.59.67-.3.33-.6.67-.91.98-.25.24-.52.49-.77.76-.25.25-.52.52-.77.74-.26.24-.54.47-.82.68-.34.31-.71.61-1.07.88-.46.37-.92.7-1.38,1.01-.57.39-1.13.76-1.71,1.1-.09.06-.2.11-.3.18-.18.1-.38.21-.56.32-1.55.87-3.15,1.6-4.81,2.21-.41.16-.86.31-1.29.44-2.02.69-4.1,1.18-6.24,1.55-.64.11-1.29.22-1.95.3-.33.05-.68.09-1.03.13-.34.03-.68.07-1.02.1-.69.08-1.39.15-2.08.18-.69.06-1.4.09-2.1.14-4.94.22-9.85.28-14.72-.17-1.18-.1-2.38-.24-3.55-.4-.6-.09-1.18-.16-1.77-.28-.48-.08-.96-.15-1.44-.26-.21-.03-.41-.08-.62-.11-.21-.05-.41-.09-.63-.14-1.47-.31-2.93-.68-4.39-1.14-.31-.09-.62-.18-.93-.3-.16-.06-.32-.11-.49-.18c0,0,0-.01-.01-.01-.16-.08-.32-.16-.49-.26-.25-.15-.52-.33-.74-.52-.24-.18-.46-.39-.67-.61-.31-.33-.59-.68-.8-1.03-.08-.1-.13-.23-.18-.34-.11-.22-.23-.44-.36-.64-.09-.18-.18-.36-.29-.49-.05-.08-.09-.14-.15-.21-.08-.13-.18-.25-.28-.37-.03-.03-.06-.06-.09-.09-.09-.13-.22-.25-.36-.37-.13-.13-.24-.24-.38-.31-.14-.11-.26-.21-.41-.28-.14-.11-.31-.18-.47-.26-.18-.09-.37-.16-.57-.2-.11-.06-.22-.08-.33-.09-.25-.08-.52-.11-.79-.14-.24-.03-.47-.05-.74-.05h-.29c-5.86.09-11.73.14-17.56-.14-.69-.03-1.25,0-1.7.09-.13.02-.22.06-.32.09-.2.05-.36.11-.51.21-.2.13-.34.28-.49.42-.11.13-.21.29-.28.48-.03.08-.07.18-.11.29-.06.21-.1.42-.15.68-.05.41-.07.87-.07,1.39.16,23.2.26,46.41.26,69.65c0,2.61.16,4.34,0,5.44-.02.15-.06.28-.1.4-.17.64-.55,1.01-1.26,1.18-.18.03-.4.07-.64.1-.83.08-1.93.02-3.48-.09-.31-.03-.64-.06-1-.09-.32-.03-.69-.07-1.08-.1-.55-.06-1.1-.11-1.65-.18-.78-.08-1.53-.17-2.29-.28-1.09-.15-2.16-.32-3.22-.51-.88-.16-1.77-.32-2.64-.52-.88-.18-1.75-.37-2.61-.59-1.73-.43-3.45-.9-5.13-1.44-.85-.25-1.7-.55-2.53-.85-.64-.22-1.29-.46-1.93-.71-1.1-.43-2.19-.86-3.27-1.34-.74-.31-1.46-.64-2.17-1-.7-.32-1.42-.68-2.14-1.05-1.42-.74-2.83-1.53-4.2-2.35-.7-.42-1.38-.85-2.06-1.29-1-.64-1.92-1.44-3.42-2.56c3.79-2.81,7.19-5.38,10.61-7.88c5.4-3.92,10.81-7.82,16.22-11.74c1.36-.99,2.7-1.96,4.05-2.94c4.05-2.94,8.11-5.87,12.14-8.84.11-.07.21-.16.32-.28.77-.67,1.5-1.75,1.53-2.63.13-10.64.07-21.29.07-32.48-.85.25-1.69.51-2.52.75-.93.28-1.83.54-2.72.8-.88.26-1.76.53-2.62.8-.59.18-1.18.37-1.75.55-2.84.92-5.64,1.87-8.48,2.84-2.81.95-5.65,1.87-8.5,2.73-.34.11-.67.23-.95.37-.15.06-.3.14-.42.21-.11.06-.22.11-.33.18-.3.18-.55.37-.77.61-.05.01-.08.06-.11.11-.03.01-.07.07-.11.1-.03.03-.07.06-.09.09-.18.22-.37.46-.51.72-.02.01-.02.03-.05.05-.07.14-.14.26-.22.41-.07.15-.15.29-.21.44-.08.18-.15.37-.21.57-.01.02-.03.06-.03.09-.01.03-.02.07-.03.1-.78,2.69-1.6,5.38-2.4,8.06-4,13.46-8.06,26.88-12.14,40.31-.4,1.34-.93,2.66-1.62,4.55-4.32-3.23-8.19-6.72-11.61-10.51-1.08-1.19-2.11-2.4-3.09-3.64-.33-.41-.65-.84-.98-1.26-.64-.83-1.26-1.67-1.87-2.54-.61-.86-1.19-1.75-1.77-2.63-2.29-3.55-4.3-7.33-6.04-11.28-.59-1.34-1.14-2.68-1.65-4.02-.25-.68-.52-1.34-.74-2.02-.26-.67-.48-1.34-.7-2.01-.22-.68-.44-1.36-.63-2.02-.18-.57-.34-1.16-.49-1.72-.44-1.57-.83-3.15-1.16-4.73-.13-.55-.24-1.13-.33-1.7-.28-1.38-.49-2.76-.65-4.13-.09-.54-.15-1.07-.21-1.61-.11-.83-.18-1.65-.24-2.47-.07-.83-.13-1.67-.16-2.49-.03-.54-.06-1.07-.06-1.61-.02-.71-.03-1.41-.03-2.11c0-.91.01-1.8.06-2.71.01-.37.01-.75.03-1.11.03-.78.09-1.55.15-2.32.07-.83.14-1.68.23-2.5.02-.32.08-.64.11-.98.08-.67.17-1.33.26-1.99.05-.41.1-.79.18-1.19.14-.88.29-1.77.46-2.65.2-1.06.42-2.1.65-3.17v-.01c.24-1.06.51-2.1.78-3.15.28-1.06.59-2.1.9-3.17c1.38.86,2.5,1.45,3.51,2.21c12.63,9.52,25.27,19.02,37.82,28.62.96.74,1.85,1.13,2.77,1.22.16.03.34.03.52.03.71,0,1.47-.16,2.33-.46c1.45-.49,2.91-.99,4.36-1.47.49-.16.98-.32,1.47-.48c3.9-1.29,7.82-2.54,11.73-3.77c1.95-.63,3.92-1.24,5.87-1.86.15-.03.3-.09.42-.15.13-.03.28-.08.39-.13.33-.11.62-.21.88-.32.32-.13.62-.25.86-.4.3-.15.49-.31.62-.49.08-.09.11-.18.15-.3.13-.31.06-.71-.2-1.21-.11-.23-.24-.48-.45-.78-.25-.44-.62-.94-1.05-1.54-4.67-6.5-9.37-12.98-13.93-19.57-.14-.18-.26-.34-.37-.49-.36-.4-.69-.76-1.06-1.03-.1-.09-.22-.16-.33-.24-.31-.2-.65-.37-1.01-.49-.22-.07-.44-.13-.68-.18-.22-.06-.48-.09-.74-.11-.22-.01-.48-.03-.74-.03h-.22c-11.85.13-23.73.21-35.58.28-3.96.02-7.91.03-11.88.08-1.19.01-2.41,0-4.4,0c1.19-2.89,2.04-5.4,3.15-7.68.08-.16.17-.32.24-.48.09-.16.17-.33.26-.49.38-.71.77-1.41,1.16-2.11.28-.52.56-1.01.87-1.5.45-.79.91-1.58,1.4-2.35.46-.74.92-1.48,1.42-2.19.24-.4.52-.82.79-1.19.99-1.49,2.03-2.93,3.1-4.31.46-.61.93-1.19,1.4-1.77.11-.15.22-.28.33-.4.42-.54.86-1.06,1.31-1.57c1.77-2.06,3.63-4.01,5.54-5.82.54-.52,1.09-1.02,1.64-1.52c1.29-1.17,2.63-2.29,4-3.35.4-.32.8-.64,1.23-.93.7-.55,1.41-1.06,2.14-1.55.57-.4,1.14-.79,1.71-1.16c1.36-.9,2.76-1.77,4.18-2.56.62-.37,1.25-.71,1.87-1.02.42-.24.85-.46,1.29-.69.82-.4,1.62-.8,2.45-1.19c1.53-.7,3.08-1.36,4.66-1.99c1.58-.61,3.2-1.17,4.86-1.71c1.64-.53,3.33-1.01,5.02-1.46c1.71-.41,3.47-.8,5.23-1.15c2.65-.52,5.38-.94,8.18-1.25.21-.02.42-.05.63-.06.2-.02.4-.03.6-.03.83-.05,1.46-.05,1.92.05.24.02.45.08.59.15c0,0,.02,0,.02.02.09.03.15.09.21.15.44.44.28,1.3-.29,2.94-4.93,14.91-9.79,29.85-14.91,44.69-1.16,3.37-1.01,5.89,1.21,8.76c2.37,3.09,4.67,6.24,6.95,9.41c2.26,3.18,4.51,6.39,6.75,9.57.48.7,1,1.25,1.57,1.69.31.28.64.51.99.7.42.24.87.42,1.34.6.3.08.61.18.92.25.33.07.67.13,1.03.18.36.06.72.09,1.1.13c17.89,1.46,34.79-3.81,51.95-7.28c4.08-.84,8.14-1.68,12.22-2.55c4.07-.86,8.13-1.76,12.19-2.66.8-.18,1.48-.24,2.08-.11.13.02.25.06.38.11.03,0,.09.02.15.06.11.06.22.1.33.18.03,0,.06.02.09.06.15.1.28.22.4.37.09.09.17.16.24.28.13.16.25.37.39.59.09.18.16.37.25.57.09.24.21.47.33.7.79,1.63,1.86,3.18,2.94,5.05.37-.38.74-.77,1.09-1.16.71-.75,1.41-1.48,2.08-2.18.68-.72,1.34-1.42,1.96-2.1.96-1.03,1.88-2.06,2.77-3.11.13-.15.22-.31.31-.52.09-.18.16-.4.21-.62.03-.11.06-.24.07-.37.01-.06.02-.11.02-.18.08-.47.08-.96.05-1.4-.1-1.22-.29-2.47-.64-3.64-.1-.39-.23-.79-.38-1.16-4.46-11.78-1.73-23.73-1-35.65.79-12.82,1.34-25.65,2.01-38.45.01-.16.01-.33.03-.49.02-.17.03-.36.06-.52.03-.31.09-.63.18-.95.09-.36.22-.7.39-1.07.03-.1.09-.21.14-.3c4.24,4.16,8.14,8.41,11.75,12.81.56.69,1.13,1.38,1.68,2.08.53.67,1.05,1.33,1.56,1.99.56.75,1.14,1.48,1.69,2.23c1.4,1.9,2.74,3.81,4.03,5.74c1.77,2.65,3.45,5.36,5.01,8.1.45.76.85,1.52,1.27,2.27s.83,1.5,1.21,2.26c2.53,4.8,4.73,9.73,6.63,14.79.23.55.42,1.13.61,1.68.26.7.51,1.4.74,2.1.37,1.07.72,2.15,1.06,3.24.49,1.56.95,3.15,1.38,4.74.22.76.4,1.53.61,2.3.18.76.37,1.53.55,2.31.25,1.11.49,2.24.74,3.37.09.4.16.83.24,1.23.2,1,.38,2.01.55,3.02.2,1.18.4,2.38.55,3.55.06.28.09.55.13.84.13.93.24,1.85.36,2.79.05.48.1.95.14,1.44.09.72.17,1.46.23,2.19.05.46.09.92.13,1.38.09,1.14.16,2.29.24,3.42-.02.06,0,.11,0,.16.07,1.33.13,2.68.16,4c.07,1.15.1,2.49.1,3.83Z" fill="#11375c"/></g><g><g><g><g><path d="M243.14,1058.77v-.2c0-.23-.02-.42-.03-.61-.02-.23-.06-.42-.11-.6-.03-.13-.07-.23-.13-.34-.06-.16-.15-.3-.24-.42-.07-.09-.16-.21-.26-.28-.07-.07-.14-.13-.22-.16-.06-.06-.13-.09-.18-.11-.07-.06-.16-.11-.28-.13-.13-.06-.25-.09-.38-.13-.09-.05-.17-.06-.26-.08-.15-.03-.3-.06-.46-.07-.24-.02-.44-.06-.68-.08-.24-.01-.49-.03-.75-.05-1.26-.08-2.54-.17-3.79-.28h-.07c-.37-.03-.72-.07-1.08-.11-.31-.02-.62-.06-.93-.09-.44-.05-.88-.1-1.32-.15-.48-.06-.95-.11-1.44-.18-.88-.11-1.77-.24-2.63-.39-.45-.07-.88-.14-1.32-.22-.16-.03-.32-.06-.48-.09-.06-.01-.11-.02-.16-.03-.16-.02-.32-.06-.48-.09-.1-.01-.2-.02-.29-.05-.03-.01-.08-.02-.11-.02-.26-.03-.52-.09-.78-.14-.13-.01-.25-.06-.38-.09-.52-.1-1.03-.22-1.55-.33-.06,0-.11-.01-.18-.03-.63-.13-1.27-.28-1.88-.44-.69-.17-1.39-.36-2.08-.54-.55-.13-1.1-.29-1.63-.44-.79-.22-1.56-.45-2.35-.7-.17-.06-.33-.11-.51-.17-.44-.14-.9-.29-1.36-.44-.72-.25-1.42-.49-2.14-.76-1.25-.46-2.5-.93-3.73-1.45-.64-.26-1.3-.54-1.92-.79-1.88-.82-3.73-1.7-5.58-2.65-.61-.33-1.21-.64-1.81-.98-1.22-.64-2.43-1.34-3.61-2.04-.61-.37-1.21-.71-1.79-1.08-.64-.41-1.29-.82-1.91-1.24-1.13-.71-2.23-1.47-3.34-2.26-.56-.4-1.14-.83-1.71-1.25-.56-.4-1.14-.84-1.69-1.29-.53-.4-1.07-.83-1.6-1.25-1.15-.92-2.29-1.86-3.41-2.84-3.4-2.96-6.57-6.14-9.48-9.5-1.01-1.16-1.99-2.33-2.93-3.55-1.8-2.26-3.48-4.59-5.04-7.01-.48-.75-.94-1.48-1.4-2.23-1.38-2.25-2.66-4.55-3.86-6.9-.39-.76-.76-1.53-1.13-2.31-1.13-2.37-2.16-4.77-3.09-7.21-.46-1.22-.91-2.43-1.32-3.68-.42-1.24-.8-2.49-1.17-3.74-.24-.83-.47-1.65-.7-2.5-.2-.74-.38-1.48-.56-2.22-.14-.54-.26-1.07-.37-1.61-.11-.52-.23-1.03-.33-1.54-.64-3.08-1.15-6.19-1.49-9.31-.06-.63-.13-1.25-.18-1.9-.09-.88-.16-1.77-.21-2.65-.05-.64-.09-1.31-.1-1.95-.03-.67-.08-1.31-.08-1.95-.01-.88-.03-1.75-.03-2.61c0-16.22,3.94-32.5,12.15-47.23.56-1.02,1.14-2.03,1.72-3.01.3-.49.61-.98.91-1.46s.6-.96.9-1.45c.61-.95,1.25-1.9,1.92-2.81c0-.02,0-.02,0-.02.64-.92,1.31-1.84,1.98-2.73.69-.91,1.38-1.8,2.08-2.68c1.86-2.32,3.8-4.56,5.85-6.68.28-.28.54-.55.79-.8.92-.94,1.84-1.86,2.78-2.72.17-.17.36-.33.52-.48.88-.83,1.77-1.64,2.69-2.41.02-.03.06-.06.07-.07.98-.85,1.95-1.65,2.96-2.45.08-.08.15-.14.23-.18.52-.42,1.05-.83,1.58-1.22.53-.4,1.06-.79,1.6-1.19.64-.48,1.29-.94,1.93-1.38.02-.02.03-.05.08-.06.51-.37,1.02-.72,1.56-1.06.29-.2.59-.4.88-.59.53-.34,1.08-.7,1.63-1.03c2.54-1.58,5.16-3.05,7.84-4.38.61-.31,1.22-.61,1.84-.88.57-.3,1.18-.57,1.77-.83.3-.13.59-.28.88-.39.83-.37,1.65-.71,2.5-1.05.3-.15.59-.25.88-.37.86-.36,1.75-.68,2.63-1c.11-.06.22-.09.36-.13c1.11-.4,2.24-.79,3.38-1.14.59-.18,1.16-.37,1.75-.54.49-.15.99-.29,1.48-.42c1.26-.36,2.54-.69,3.82-.99c1.07-.26,2.14-.49,3.2-.7.71-.15,1.46-.3,2.19-.42c1.01-.18,2.02-.33,3.03-.48.16-.02.32-.05.48-.07.4-.06.82-.11,1.22-.16.11-.02.23-.03.34-.05.36-.06.72-.1,1.09-.14.31-.03.63-.07.95-.09.36-.05.72-.09,1.09-.11c1.02-.1,2.07-.18,3.1-.24c1.38-.09,2.76-.15,4.13-.16c1.58-.05,3.17-.05,4.77.01h.09c.41.02.82.05,1.23.07.08,0,.15,0,.23.01.22-.01.44-.01.65.01.09,0,.17,0,.25.01.07.01.13.02.18.03h.07c.7.01,1.41.05,2.11.13.61.05,1.23.09,1.84.15.32.02.65.06.99.09.3.03.61.07.92.1c1.27.15,2.54.31,3.81.52.84.11,1.69.24,2.54.42.25.03.51.09.76.14.22.03.42.08.64.11.15.03.3.06.44.08.23.06.46.1.68.15.01-.01.01-.01.02-.01s.03.01.05.01c.01,0,.02.01.02.01.79.17,1.58.33,2.4.52.88.18,1.75.4,2.63.63.16.03.33.07.49.1.26.06.51.1.74.11.36.05.67.06.94.02.13-.02.25-.05.37-.08.24-.07.45-.16.63-.31.6-.46.95-1.33,1.19-2.62.93-5.05,1.89-10.11,2.85-15.16.09-.45.18-.88.26-1.33.53-2.73,1.06-5.48,1.6-8.25.28-1.36.55-2.73.83-4.12.13-.68.25-1.36.4-2.03.13-.69.26-1.39.41-2.07.03-.13.06-.26.08-.39s.03-.24.05-.36c.08-.68.06-1.24-.09-1.7-.03-.13-.08-.26-.13-.37-.08-.15-.15-.3-.24-.43-.11-.15-.24-.3-.41-.42v-.01c-.02-.01-.03-.03-.06-.05-.07-.06-.15-.11-.23-.16-.4-.3-.92-.52-1.55-.7-.06-.02-.11-.05-.18-.07-.07-.01-.14-.03-.21-.06-.11-.03-.24-.06-.37-.09-.02-.01-.05-.01-.07-.02-.67-.14-1.32-.28-1.99-.4-.21-.03-.42-.08-.63-.13-.09-.02-.17-.03-.26-.06-.07-.01-.14-.03-.21-.05-.2-.03-.39-.08-.59-.11-.26-.06-.52-.1-.78-.16-.05-.01-.1-.02-.15-.02-.21-.03-.41-.08-.62-.11-.44-.08-.87-.16-1.31-.23-.88-.16-1.78-.3-2.68-.44-.41-.07-.83-.13-1.24-.18-.47-.07-.93-.14-1.4-.21-.49-.07-.99-.13-1.47-.18-.99-.13-1.98-.23-2.95-.33-1.92-.2-3.85-.34-5.77-.45-3.38-.21-6.79-.26-10.19-.18-1.88.03-3.76.13-5.64.23h-.07c-.2.02-.4.03-.6.05-.71.05-1.42.1-2.15.16h-.07c-.34.03-.68.07-1.02.1-.26.02-.53.05-.79.08-.02,0-.05,0-.07.01-.22.01-.44.03-.64.07-.41.05-.83.08-1.24.13-1.48.16-2.93.34-4.39.55-.03,0-.07.01-.1.01-.01.01-.02.01-.03.01s-.01,0-.02,0c-.11.02-.25.03-.37.05-.15.01-.31.03-.45.06l-1.69.25c-1,.15-1.98.32-2.95.48-.32.06-.65.11-.99.16-.45.09-.91.17-1.34.26-.59.11-1.16.22-1.75.34-.2.03-.39.08-.59.11-.09.02-.17.03-.26.06-.26.05-.52.09-.77.15-.09.02-.17.05-.26.07s-.17.03-.25.06c-.6.13-1.18.25-1.75.4-.7.15-1.4.31-2.1.48-2.01.49-4,1.01-5.96,1.6-.52.15-1.06.3-1.57.46-1.05.31-2.09.64-3.15,1l-.92.31c-.18.06-.37.11-.55.18-.44.15-.9.3-1.34.46-.18.08-.38.15-.56.23-.05.01-.08.02-.13.05-.01.01-.02.01-.05.01-.1.03-.18.05-.29.08-.3.11-.61.22-.91.33-.06.02-.09.03-.15.06-.86.31-1.73.64-2.6.99-.13.05-.25.09-.39.15-.96.39-1.94.79-2.92,1.22-1,.4-1.98.85-2.95,1.31-.53.22-1.07.46-1.57.74-2.23,1.03-4.41,2.14-6.56,3.3-.39.22-.77.41-1.16.64-.59.31-1.16.64-1.73.98-.62.34-1.21.71-1.81,1.07-.09.07-.21.13-.3.18-.37.22-.76.44-1.13.68-.47.3-.98.59-1.45.91-.06.01-.11.05-.17.08-.42.29-.86.56-1.29.87-1.01.62-2.01,1.31-3,1.99-.83.57-1.64,1.16-2.45,1.75-.36.24-.7.49-1.06.76v.01c-.03.02-.07.06-.1.08-.07.05-.14.09-.21.15-.1.07-.21.15-.31.23-2.94,2.22-5.8,4.55-8.58,7.02-.86.76-1.71,1.53-2.54,2.32-.03.02-.06.06-.09.07-.59.57-1.19,1.13-1.77,1.71l-.79.79c-.05.05-.09.08-.13.11-.06.03-.09.07-.13.13-3.66,3.61-7.17,7.48-10.51,11.58-.68.83-1.37,1.68-2.01,2.53-.16.2-.31.42-.47.62-.69.87-1.37,1.73-2,2.62-.96,1.3-1.93,2.63-2.87,3.97-2.06,2.96-3.99,5.96-5.79,9-.64,1.06-1.27,2.15-1.86,3.24-.68,1.21-1.34,2.42-1.98,3.64-.56,1.08-1.11,2.19-1.65,3.27-1.08,2.25-2.1,4.51-3.06,6.79-.22.54-.46,1.09-.67,1.64-.47,1.18-.93,2.34-1.34,3.51-.41,1.09-.8,2.19-1.17,3.27-.4,1.21-.79,2.4-1.18,3.59-.06.2-.1.38-.16.55-.36,1.16-.68,2.32-1,3.49-.34,1.27-.68,2.56-.99,3.87-.3,1.25-.59,2.5-.85,3.76-.02.03-.02.09-.02.13-.25,1.22-.49,2.45-.71,3.69-.06.18-.07.37-.11.56-.42,2.43-.79,4.88-1.07,7.36-.05.31-.09.63-.1.94-.11,1.1-.22,2.23-.33,3.33-.16,1.93-.3,3.88-.39,5.83-.03.98-.07,1.95-.09,2.93-.06,1.78-.06,3.57-.01,5.38-.02.59,0,1.17.01,1.77.05,1.3.08,2.63.15,3.93c0,0,0,0,0,.02.15,2.54.33,5.1.59,7.67.18,1.85.4,3.68.65,5.49.25,1.83.55,3.62.86,5.41.2,1.19.44,2.39.68,3.57.33,1.56.68,3.12,1.05,4.7c4.51,18.66,12.82,35.85,24.83,51.45c17.16,22.27,38.98,38.3,65.83,47.23c4.54,1.52,9.07,2.77,13.62,3.79c1.37.32,2.72.6,4.11.85.08.02.17.03.25.05.02,0,.05,0,.07.01.07.01.14.02.21.03l.01-.01l15.02-10.07l8.89-5.96.02-.02c0-.41,0-.84-.01-1.25c0-.85-.01-1.69-.03-2.53-.01-.43-.02-.85-.03-1.27c0-.41-.02-.83-.03-1.24-.01-.18,0-.34.02-.52c0-.22,0-.46.03-.64c0-.07.02-.15.03-.22.01-.06.01-.1.03-.15.01-.05.02-.08.05-.13c0-.03.01-.06.01-.08s.01-.05.02-.07c.03-.15.09-.25.16-.37.1-.18.24-.34.41-.46v-8.14c-.4-.25-.69-.76-.65-1.67Z" fill="#bc2228"/><path d="M220.18,1093.79c-.3-.07-.6-.13-.9-.18-.02,0-.03-.01-.06-.01l-.02.02c.61.1,1.21.22,1.81.33-.28-.05-.56-.1-.83-.16Z" fill="#bc2228"/><path d="M265.4,860.2c-.2-.04-.39-.09-.59-.13-.16-.05-.32-.08-.49-.1-.2-.05-.4-.08-.61-.11c0,0-.01-.01-.02-.01s-.03-.01-.05-.01c-.01,0-.01,0-.02.01-.22-.05-.45-.09-.68-.15-.14-.02-.29-.05-.44-.08-.22-.03-.42-.08-.64-.11-.25-.05-.51-.1-.76-.14-.85-.18-1.7-.31-2.54-.42-1.27-.21-2.54-.37-3.81-.52-.31-.03-.62-.07-.92-.1-.33-.03-.67-.07-.99-.09-.61-.06-1.23-.1-1.84-.15-.7-.08-1.41-.11-2.11-.13h-.07c-.06-.01-.11-.02-.18-.03-.08-.01-.16-.01-.25-.01-.22-.02-.44-.02-.65-.01-.08-.01-.15-.01-.23-.01-.41-.05-.82-.05-1.23-.07h-.09c-1.6-.06-3.18-.06-4.77-.01-1.38.01-2.76.07-4.13.16-1.03.06-2.08.14-3.1.24-.37.02-.74.07-1.09.11-.32.02-.64.06-.95.09-.37.03-.73.08-1.09.14-.68.06-1.37.17-2.04.28-1.01.15-2.02.3-3.03.48-.74.13-1.48.28-2.19.42-1.07.21-2.14.44-3.2.7-1.29.3-2.56.63-3.82.99-.49.14-.99.28-1.48.42-.59.17-1.16.36-1.75.54-1.14.34-2.26.74-3.38,1.14-.14.03-.24.07-.36.13-.88.32-1.77.64-2.63,1-.3.11-.59.22-.88.37-.85.31-1.68.67-2.5,1.05-.3.11-.59.26-.88.39-.59.25-1.19.53-1.77.83-.62.28-1.23.57-1.84.88-2.69,1.32-5.31,2.79-7.84,4.38-.55.33-1.1.69-1.63,1.03-.3.18-.6.39-.88.59-.54.33-1.06.69-1.56,1.06-.05.01-.06.03-.08.06-.64.44-1.29.9-1.93,1.38-.55.38-1.09.77-1.6,1.19-.54.39-1.07.79-1.58,1.22-.08.05-.15.1-.23.18-1.01.79-1.99,1.6-2.96,2.45-.01.01-.05.03-.07.07-.92.77-1.8,1.58-2.69,2.41-.16.15-.34.31-.52.48-.94.86-1.86,1.78-2.78,2.72-.25.25-.52.53-.79.8-2.04,2.12-3.99,4.36-5.85,6.68-.7.87-1.39,1.77-2.08,2.68-.67.9-1.32,1.81-1.98,2.73c0,0,0,0,0,.02-.96,1.38-1.9,2.8-2.81,4.26-.3.48-.61.96-.91,1.46-.59.98-1.16,1.99-1.72,3.01-8.21,14.72-12.15,31.01-12.15,47.23c0,.86.02,1.72.03,2.61c0,.64.05,1.29.08,1.95.01.64.06,1.31.1,1.95.05.88.11,1.77.21,2.65.06.64.13,1.26.18,1.9.34,3.12.85,6.24,1.49,9.31.1.51.22,1.02.33,1.54.1.54.23,1.07.37,1.61.18.74.37,1.48.56,2.22.23.85.46,1.68.7,2.5.37,1.25.76,2.5,1.17,3.74s.86,2.46,1.32,3.68c.93,2.45,1.96,4.85,3.09,7.21.37.78.74,1.55,1.13,2.31c1.19,2.35,2.48,4.65,3.86,6.9.46.75.92,1.48,1.4,2.23c1.56,2.41,3.24,4.74,5.04,7.01.94,1.22,1.92,2.39,2.93,3.55c2.91,3.35,6.08,6.54,9.48,9.5c1.13.98,2.26,1.92,3.41,2.84.53.42,1.07.85,1.6,1.25.55.45,1.13.86,1.69,1.29.57.43,1.15.85,1.71,1.25c1.11.79,2.22,1.55,3.34,2.26.62.42,1.26.83,1.91,1.24.59.37,1.18.71,1.79,1.08c1.17.7,2.39,1.4,3.61,2.04.61.33,1.21.64,1.81.98c1.85.94,3.7,1.83,5.58,2.65.62.25,1.27.53,1.92.79c1.23.52,2.48.99,3.73,1.45.71.26,1.41.51,2.14.76.46.15.92.3,1.36.44.18.06.38.11.56.17h.01c.18.06.37.11.54.17.05.01.09.02.13.03.28.08.54.16.8.24.05.01.09.02.13.05.23.07.46.14.69.21.53.15,1.08.31,1.63.44.69.18,1.39.37,2.08.54.17.05.36.08.53.11.16.05.32.08.47.11.3.07.59.14.88.21.07.02.13.03.18.03.52.11,1.03.23,1.55.33.07.01.15.03.23.05.07.02.15.03.22.05.14.02.26.05.4.07.05.01.1.02.15.03.06.01.11.02.16.03.03,0,.08.01.11.02.09.02.18.03.29.05.16.03.32.07.48.09.05.01.1.02.16.03.16.03.32.06.48.09.44.08.87.15,1.32.22.86.15,1.75.28,2.63.39.48.07.95.13,1.44.18.44.05.88.1,1.32.15.31.03.62.07.93.09.36.05.71.08,1.08.11h.07c1.25.1,2.53.2,3.79.28.25.01.51.03.75.05s.44.06.68.08c.16.01.31.03.46.07.09.02.17.03.26.08.13.03.25.07.38.13.11.01.21.07.28.13.06.02.13.06.18.11.08.03.15.09.22.16.1.07.2.18.26.28.09.13.18.26.24.42.06.11.09.22.13.34.06.17.09.37.11.6.01.18.03.38.03.61v.2c-.03.91.25,1.41.7,1.69v8.14c-.17.11-.31.28-.41.46-.07.11-.13.22-.16.37-.01.02-.02.05-.02.07-.03.06-.05.13-.06.21-.02.05-.02.09-.03.15-.01.07-.03.15-.03.22-.07.33-.09.72-.07,1.16.01.41.03.83.05,1.24.01.42.02.85.03,1.27.02.84.03,1.68.03,2.53c0,.42-.01.85-.01,1.27v.05c0,1.57-.03,3.15-.1,4.72v.34c0,.08,0,.13.01.21-.01.22,0,.42.05.61.01.22.07.42.13.61.1.34.28.64.49.86.02.05.07.09.11.1v10.96c-.52,0-1.03-.01-1.55-.02-.15,0-.3,0-.45-.01-1.58-.02-3.18-.08-4.77-.18-.17,0-.33-.01-.49-.01-.16-.01-.32-.02-.48-.05h-.07c-.72-.05-1.45-.1-2.16-.16-.75-.06-1.49-.13-2.24-.21h-.07c-.33-.02-.65-.06-.99-.09h-.07c-1.53-.16-3.06-.36-4.58-.55-1.02-.15-2.08-.3-3.1-.48-.61-.09-1.21-.2-1.8-.29-.61-.11-1.21-.23-1.81-.33-.16-.05-.34-.08-.51-.11-1.39-.25-2.74-.53-4.11-.85-4.55-1.02-9.08-2.27-13.62-3.79-26.85-8.92-48.67-24.96-65.83-47.23-12.01-15.61-20.32-32.79-24.83-51.45-.37-1.57-.71-3.14-1.05-4.7-.24-1.18-.48-2.38-.68-3.57-.31-1.79-.61-3.58-.86-5.41-.26-1.81-.48-3.64-.67-5.49-.26-2.57-.46-5.13-.57-7.67c0-.02,0-.02,0-.02-.07-1.3-.1-2.63-.15-3.93-.01-.6-.03-1.18-.01-1.77-.05-1.8-.05-3.59.01-5.38.02-.98.06-1.95.09-2.93.09-1.95.23-3.9.39-5.83.11-1.1.22-2.23.33-3.33.01-.31.06-.63.1-.94.28-2.48.64-4.93,1.07-7.36.05-.2.06-.38.11-.56.22-1.24.46-2.47.71-3.69c0-.03,0-.09.02-.13.26-1.25.55-2.5.85-3.76.31-1.31.64-2.6.99-3.87.32-1.17.64-2.33,1-3.49.06-.17.1-.36.16-.55.39-1.19.78-2.39,1.18-3.59.37-1.08.76-2.18,1.17-3.27.41-1.17.87-2.33,1.34-3.51.21-.55.45-1.1.67-1.64.95-2.27,1.98-4.54,3.06-6.79.54-1.08,1.09-2.19,1.65-3.27.63-1.22,1.3-2.43,1.98-3.64.59-1.09,1.22-2.18,1.86-3.24c1.8-3.04,3.73-6.04,5.79-9c.94-1.34,1.91-2.68,2.87-3.97.63-.88,1.31-1.75,2-2.62.16-.2.31-.42.47-.62.64-.85,1.33-1.7,2.01-2.53c3.34-4.1,6.85-7.97,10.51-11.58.03-.06.07-.09.13-.13.3-.33.61-.63.92-.91.57-.59,1.18-1.14,1.77-1.71.03-.01.06-.05.09-.07.83-.79,1.68-1.56,2.54-2.32c2.78-2.47,5.64-4.8,8.58-7.02.1-.08.21-.16.31-.23.07-.06.14-.1.21-.15.03-.03.07-.07.1-.09.36-.26.7-.52,1.06-.76.8-.59,1.62-1.17,2.45-1.75.99-.68,1.99-1.37,3-1.99.48-.31.95-.64,1.46-.95.47-.32.98-.61,1.45-.91.37-.24.76-.46,1.13-.68.09-.06.21-.11.3-.18.61-.36,1.19-.72,1.81-1.07.57-.33,1.15-.67,1.73-.98.39-.23.77-.42,1.16-.64c2.15-1.16,4.33-2.26,6.56-3.3.51-.28,1.05-.52,1.57-.74.98-.46,1.95-.91,2.95-1.31.98-.42,1.95-.83,2.92-1.22.14-.06.26-.1.39-.15.86-.34,1.73-.68,2.6-.99.06-.02.09-.03.15-.06.3-.11.61-.22.91-.33.34-.13.68-.25,1.02-.37.45-.16.91-.31,1.34-.46.18-.07.37-.13.55-.18l.92-.31c1.06-.36,2.1-.69,3.15-1c.52-.16,1.06-.31,1.57-.46c1.96-.59,3.95-1.1,5.96-1.6.7-.17,1.4-.33,2.1-.48.56-.15,1.15-.28,1.75-.4.08-.02.16-.03.25-.06.11-.02.22-.05.33-.07.23-.05.47-.1.7-.15.09-.02.17-.03.26-.06.2-.03.39-.08.59-.11.59-.13,1.16-.23,1.75-.34.23-.05.46-.09.69-.13.24-.05.48-.09.72-.14.07-.01.13-.02.2-.03.24-.05.48-.09.72-.13.98-.16,1.95-.33,2.95-.48l1.69-.25c.14-.02.3-.05.45-.06.11-.01.25-.02.37-.05.01,0,.01,0,.02,0s.02,0,.03-.01c.03,0,.07-.01.1-.01c1.46-.21,2.91-.39,4.39-.55.41-.05.83-.08,1.24-.13.21-.03.43-.06.64-.07h.07v-.01c.61-.06,1.23-.11,1.84-.16h.07c.71-.06,1.41-.11,2.12-.18.2-.01.4-.02.6-.05h.07c1.88-.1,3.76-.2,5.64-.23c3.4-.08,6.81-.02,10.19.18c1.92.1,3.85.25,5.77.45.98.1,1.96.21,2.95.33.48.06.98.11,1.47.18.47.07.93.14,1.4.21c1.75.26,3.49.54,5.23.85.21.03.41.08.62.11.31.07.62.13.93.18.2.03.39.08.59.11.07.01.14.03.21.05.09.02.17.03.26.06.21.05.42.09.63.13.67.14,1.32.28,1.99.42.3.07.57.15.83.22.63.18,1.15.4,1.55.7.08.05.16.1.23.16l.06.06c.17.13.3.28.41.42.09.13.16.28.24.43.05.1.09.24.13.37.15.46.17,1.02.09,1.7-.01.11-.02.23-.05.36-.02.13-.05.26-.07.39-.13.68-.28,1.38-.42,2.07-.15.68-.28,1.36-.4,2.03-.28,1.39-.55,2.77-.83,4.12-.54,2.77-1.07,5.51-1.6,8.25-.08.45-.17.88-.26,1.33-.95,5.05-1.92,10.11-2.85,15.16-.24,1.29-.6,2.16-1.19,2.62-.18.15-.39.24-.63.31-.11.03-.24.06-.37.08-.28.03-.59.02-.94-.02-.23-.01-.47-.06-.74-.11-.16-.03-.33-.07-.49-.1-.88-.23-1.75-.45-2.63-.63-.13-.03-.25-.07-.38-.09-.16-.05-.27-.08-.38-.1Z" fill="#bc2228"/></g></g><g><g><path d="M243.14,1058.77v-.2c0-.23-.02-.42-.03-.61-.02-.23-.06-.42-.11-.6-.03-.13-.07-.23-.13-.34-.06-.16-.15-.3-.24-.42-.07-.09-.16-.21-.26-.28-.07-.07-.14-.13-.22-.16-.06-.06-.13-.09-.18-.11-.07-.06-.16-.11-.28-.13-.13-.06-.25-.09-.38-.13-.09-.05-.17-.06-.26-.08-.15-.03-.3-.06-.46-.07-.24-.02-.44-.06-.68-.08-.24-.01-.49-.03-.75-.05-1.26-.08-2.54-.17-3.79-.28h-.07c-.37-.03-.72-.07-1.08-.11-.31-.02-.62-.06-.93-.09-.44-.05-.88-.1-1.32-.15-.48-.06-.95-.11-1.44-.18-.88-.11-1.77-.24-2.63-.39-.45-.07-.88-.14-1.32-.22-.16-.03-.32-.06-.48-.09-.06-.01-.11-.02-.16-.03-.16-.02-.32-.06-.48-.09-.1-.01-.2-.02-.29-.05-.03-.01-.08-.02-.11-.02-.26-.03-.52-.09-.78-.14-.13-.01-.25-.06-.38-.09-.52-.1-1.03-.22-1.55-.33-.06,0-.11-.01-.18-.03-.63-.13-1.27-.28-1.88-.44-.69-.17-1.39-.36-2.08-.54-.55-.13-1.1-.29-1.63-.44-.79-.22-1.56-.45-2.35-.7-.17-.06-.33-.11-.51-.17-.44-.14-.9-.29-1.36-.44-.72-.25-1.42-.49-2.14-.76-1.25-.46-2.5-.93-3.73-1.45-.64-.26-1.3-.54-1.92-.79-1.88-.82-3.73-1.7-5.58-2.65-.61-.33-1.21-.64-1.81-.98-1.22-.64-2.43-1.34-3.61-2.04-.61-.37-1.21-.71-1.79-1.08-.64-.41-1.29-.82-1.91-1.24-1.13-.71-2.23-1.47-3.34-2.26-.56-.4-1.14-.83-1.71-1.25-.56-.4-1.14-.84-1.69-1.29-.53-.4-1.07-.83-1.6-1.25-1.15-.92-2.29-1.86-3.41-2.84-3.4-2.96-6.57-6.14-9.48-9.5-1.01-1.16-1.99-2.33-2.93-3.55-1.8-2.26-3.48-4.59-5.04-7.01-.48-.75-.94-1.48-1.4-2.23-1.38-2.25-2.66-4.55-3.86-6.9-.39-.76-.76-1.53-1.13-2.31-1.13-2.37-2.16-4.77-3.09-7.21-.46-1.22-.91-2.43-1.32-3.68-.42-1.24-.8-2.49-1.17-3.74-.24-.83-.47-1.65-.7-2.5-.2-.74-.38-1.48-.56-2.22-.14-.54-.26-1.07-.37-1.61-.11-.52-.23-1.03-.33-1.54-.64-3.08-1.15-6.19-1.49-9.31-.06-.63-.13-1.25-.18-1.9-.09-.88-.16-1.77-.21-2.65-.05-.64-.09-1.31-.1-1.95-.03-.67-.08-1.31-.08-1.95-.01-.88-.03-1.75-.03-2.61c0-16.22,3.94-32.5,12.15-47.23.56-1.02,1.14-2.03,1.72-3.01.3-.49.61-.98.91-1.46s.6-.96.9-1.45c.61-.95,1.25-1.9,1.92-2.81c0-.02,0-.02,0-.02.64-.92,1.31-1.84,1.98-2.73.69-.91,1.38-1.8,2.08-2.68c1.86-2.32,3.8-4.56,5.85-6.68.28-.28.54-.55.79-.8.92-.94,1.84-1.86,2.78-2.72.17-.17.36-.33.52-.48.88-.83,1.77-1.64,2.69-2.41.02-.03.06-.06.07-.07.98-.85,1.95-1.65,2.96-2.45.08-.08.15-.14.23-.18.52-.42,1.05-.83,1.58-1.22.53-.4,1.06-.79,1.6-1.19.64-.48,1.29-.94,1.93-1.38.02-.02.03-.05.08-.06.51-.37,1.02-.72,1.56-1.06.29-.2.59-.4.88-.59.53-.34,1.08-.7,1.63-1.03c2.54-1.58,5.16-3.05,7.84-4.38.61-.31,1.22-.61,1.84-.88.57-.3,1.18-.57,1.77-.83.3-.13.59-.28.88-.39.83-.37,1.65-.71,2.5-1.05.3-.15.59-.25.88-.37.86-.36,1.75-.68,2.63-1c.11-.06.22-.09.36-.13c1.11-.4,2.24-.79,3.38-1.14.59-.18,1.16-.37,1.75-.54.49-.15.99-.29,1.48-.42c1.26-.36,2.54-.69,3.82-.99c1.07-.26,2.14-.49,3.2-.7.71-.15,1.46-.3,2.19-.42c1.01-.18,2.02-.33,3.03-.48.16-.02.32-.05.48-.07.4-.06.82-.11,1.22-.16.11-.02.23-.03.34-.05.36-.06.72-.1,1.09-.14.31-.03.63-.07.95-.09.36-.05.72-.09,1.09-.11c1.02-.1,2.07-.18,3.1-.24c1.38-.09,2.76-.15,4.13-.16c1.58-.05,3.17-.05,4.77.01h.09c.41.02.82.05,1.23.07.08,0,.15,0,.23.01.22-.01.44-.01.65.01.09,0,.17,0,.25.01.07.01.13.02.18.03h.07c.7.01,1.41.05,2.11.13.61.05,1.23.09,1.84.15.32.02.65.06.99.09.3.03.61.07.92.1c1.27.15,2.54.31,3.81.52.84.11,1.69.24,2.54.42.25.03.51.09.76.14.22.03.42.08.64.11.15.03.3.06.44.08.23.06.46.1.68.15.01-.01.01-.01.02-.01s.03.01.05.01c.01,0,.02.01.02.01.79.17,1.58.33,2.4.52.88.18,1.75.4,2.63.63.16.03.33.07.49.1.26.06.51.1.74.11.36.05.67.06.94.02.13-.02.25-.05.37-.08.24-.07.45-.16.63-.31.6-.46.95-1.33,1.19-2.62.93-5.05,1.89-10.11,2.85-15.16.09-.45.18-.88.26-1.33.53-2.73,1.06-5.48,1.6-8.25.28-1.36.55-2.73.83-4.12.13-.68.25-1.36.4-2.03.13-.69.26-1.39.41-2.07.03-.13.06-.26.08-.39s.03-.24.05-.36c.08-.68.06-1.24-.09-1.7-.03-.13-.08-.26-.13-.37-.08-.15-.15-.3-.24-.43-.11-.15-.24-.3-.41-.42v-.01c-.02-.01-.03-.03-.06-.05-.07-.06-.15-.11-.23-.16-.4-.3-.92-.52-1.55-.7-.06-.02-.11-.05-.18-.07-.07-.01-.14-.03-.21-.06-.11-.03-.24-.06-.37-.09-.02-.01-.05-.01-.07-.02-.67-.14-1.32-.28-1.99-.4-.21-.03-.42-.08-.63-.13-.09-.02-.17-.03-.26-.06-.07-.01-.14-.03-.21-.05-.2-.03-.39-.08-.59-.11-.26-.06-.52-.1-.78-.16-.05-.01-.1-.02-.15-.02-.21-.03-.41-.08-.62-.11-.44-.08-.87-.16-1.31-.23-.88-.16-1.78-.3-2.68-.44-.41-.07-.83-.13-1.24-.18-.47-.07-.93-.14-1.4-.21-.49-.07-.99-.13-1.47-.18-.99-.13-1.98-.23-2.95-.33-1.92-.2-3.85-.34-5.77-.45-3.38-.21-6.79-.26-10.19-.18-1.88.03-3.76.13-5.64.23h-.07c-.2.02-.4.03-.6.05-.71.05-1.42.1-2.15.16h-.07c-.34.03-.68.07-1.02.1-.26.02-.53.05-.79.08-.02,0-.05,0-.07.01-.22.01-.44.03-.64.07-.41.05-.83.08-1.24.13-1.48.16-2.93.34-4.39.55-.03,0-.07.01-.1.01-.01.01-.02.01-.03.01s-.01,0-.02,0c-.11.02-.25.03-.37.05-.15.01-.31.03-.45.06l-1.69.25c-1,.15-1.98.32-2.95.48-.32.06-.65.11-.99.16-.45.09-.91.17-1.34.26-.59.11-1.16.22-1.75.34-.2.03-.39.08-.59.11-.09.02-.17.03-.26.06-.26.05-.52.09-.77.15-.09.02-.17.05-.26.07s-.17.03-.25.06c-.6.13-1.18.25-1.75.4-.7.15-1.4.31-2.1.48-2.01.49-4,1.01-5.96,1.6-.52.15-1.06.3-1.57.46-1.05.31-2.09.64-3.15,1l-.92.31c-.18.06-.37.11-.55.18-.44.15-.9.3-1.34.46-.18.08-.38.15-.56.23-.05.01-.08.02-.13.05-.01.01-.02.01-.05.01-.1.03-.18.05-.29.08-.3.11-.61.22-.91.33-.06.02-.09.03-.15.06-.86.31-1.73.64-2.6.99-.13.05-.25.09-.39.15-.96.39-1.94.79-2.92,1.22-1,.4-1.98.85-2.95,1.31-.53.22-1.07.46-1.57.74-2.23,1.03-4.41,2.14-6.56,3.3-.39.22-.77.41-1.16.64-.59.31-1.16.64-1.73.98-.62.34-1.21.71-1.81,1.07-.09.07-.21.13-.3.18-.37.22-.76.44-1.13.68-.47.3-.98.59-1.45.91-.06.01-.11.05-.17.08-.42.29-.86.56-1.29.87-1.01.62-2.01,1.31-3,1.99-.83.57-1.64,1.16-2.45,1.75-.36.24-.7.49-1.06.76v.01c-.03.02-.07.06-.1.08-.07.05-.14.09-.21.15-.1.07-.21.15-.31.23-2.94,2.22-5.8,4.55-8.58,7.02-.86.76-1.71,1.53-2.54,2.32-.03.02-.06.06-.09.07-.59.57-1.19,1.13-1.77,1.71l-.79.79c-.05.05-.09.08-.13.11-.06.03-.09.07-.13.13-3.66,3.61-7.17,7.48-10.51,11.58-.68.83-1.37,1.68-2.01,2.53-.16.2-.31.42-.47.62-.69.87-1.37,1.73-2,2.62-.96,1.3-1.93,2.63-2.87,3.97-2.06,2.96-3.99,5.96-5.79,9-.64,1.06-1.27,2.15-1.86,3.24-.68,1.21-1.34,2.42-1.98,3.64-.56,1.08-1.11,2.19-1.65,3.27-1.08,2.25-2.1,4.51-3.06,6.79-.22.54-.46,1.09-.67,1.64-.47,1.18-.93,2.34-1.34,3.51-.41,1.09-.8,2.19-1.17,3.27-.4,1.21-.79,2.4-1.18,3.59-.06.2-.1.38-.16.55-.36,1.16-.68,2.32-1,3.49-.34,1.27-.68,2.56-.99,3.87-.3,1.25-.59,2.5-.85,3.76-.02.03-.02.09-.02.13-.25,1.22-.49,2.45-.71,3.69-.06.18-.07.37-.11.56-.42,2.43-.79,4.88-1.07,7.36-.05.31-.09.63-.1.94-.11,1.1-.22,2.23-.33,3.33-.16,1.93-.3,3.88-.39,5.83-.03.98-.07,1.95-.09,2.93-.06,1.78-.06,3.57-.01,5.38-.02.59,0,1.17.01,1.77.05,1.3.08,2.63.15,3.93c0,0,0,0,0,.02.15,2.54.33,5.1.59,7.67.18,1.85.4,3.68.65,5.49.25,1.83.55,3.62.86,5.41.2,1.19.44,2.39.68,3.57.33,1.56.68,3.12,1.05,4.7c4.51,18.66,12.82,35.85,24.83,51.45c17.16,22.27,38.98,38.3,65.83,47.23c4.54,1.52,9.07,2.77,13.62,3.79c1.37.32,2.72.6,4.11.85.08.02.17.03.25.05.02,0,.05,0,.07.01.07.01.14.02.21.03l.01-.01l15.02-10.07l8.89-5.96.02-.02c0-.41,0-.84-.01-1.25c0-.85-.01-1.69-.03-2.53-.01-.43-.02-.85-.03-1.27c0-.41-.02-.83-.03-1.24-.01-.18,0-.34.02-.52c0-.22,0-.46.03-.64c0-.07.02-.15.03-.22.01-.06.01-.1.03-.15.01-.05.02-.08.05-.13c0-.03.01-.06.01-.08s.01-.05.02-.07c.03-.15.09-.25.16-.37.1-.18.24-.34.41-.46v-8.14c-.4-.25-.69-.76-.65-1.67Z" fill="#bc2228"/><path d="M220.18,1093.79c-.3-.07-.6-.13-.9-.18-.02,0-.03-.01-.06-.01l-.02.02c.61.1,1.21.22,1.81.33-.28-.05-.56-.1-.83-.16Z" fill="#bc2228"/><path d="M265.4,860.2c-.2-.04-.39-.09-.59-.13-.16-.05-.32-.08-.49-.1-.2-.05-.4-.08-.61-.11c0,0-.01-.01-.02-.01s-.03-.01-.05-.01c-.01,0-.01,0-.02.01-.22-.05-.45-.09-.68-.15-.14-.02-.29-.05-.44-.08-.22-.03-.42-.08-.64-.11-.25-.05-.51-.1-.76-.14-.85-.18-1.7-.31-2.54-.42-1.27-.21-2.54-.37-3.81-.52-.31-.03-.62-.07-.92-.1-.33-.03-.67-.07-.99-.09-.61-.06-1.23-.1-1.84-.15-.7-.08-1.41-.11-2.11-.13h-.07c-.06-.01-.11-.02-.18-.03-.08-.01-.16-.01-.25-.01-.22-.02-.44-.02-.65-.01-.08-.01-.15-.01-.23-.01-.41-.05-.82-.05-1.23-.07h-.09c-1.6-.06-3.18-.06-4.77-.01-1.38.01-2.76.07-4.13.16-1.03.06-2.08.14-3.1.24-.37.02-.74.07-1.09.11-.32.02-.64.06-.95.09-.37.03-.73.08-1.09.14-.68.06-1.37.17-2.04.28-1.01.15-2.02.3-3.03.48-.74.13-1.48.28-2.19.42-1.07.21-2.14.44-3.2.7-1.29.3-2.56.63-3.82.99-.49.14-.99.28-1.48.42-.59.17-1.16.36-1.75.54-1.14.34-2.26.74-3.38,1.14-.14.03-.24.07-.36.13-.88.32-1.77.64-2.63,1-.3.11-.59.22-.88.37-.85.31-1.68.67-2.5,1.05-.3.11-.59.26-.88.39-.59.25-1.19.53-1.77.83-.62.28-1.23.57-1.84.88-2.69,1.32-5.31,2.79-7.84,4.38-.55.33-1.1.69-1.63,1.03-.3.18-.6.39-.88.59-.54.33-1.06.69-1.56,1.06-.05.01-.06.03-.08.06-.64.44-1.29.9-1.93,1.38-.55.38-1.09.77-1.6,1.19-.54.39-1.07.79-1.58,1.22-.08.05-.15.1-.23.18-1.01.79-1.99,1.6-2.96,2.45-.01.01-.05.03-.07.07-.92.77-1.8,1.58-2.69,2.41-.16.15-.34.31-.52.48-.94.86-1.86,1.78-2.78,2.72-.25.25-.52.53-.79.8-2.04,2.12-3.99,4.36-5.85,6.68-.7.87-1.39,1.77-2.08,2.68-.67.9-1.32,1.81-1.98,2.73c0,0,0,0,0,.02-.96,1.38-1.9,2.8-2.81,4.26-.3.48-.61.96-.91,1.46-.59.98-1.16,1.99-1.72,3.01-8.21,14.72-12.15,31.01-12.15,47.23c0,.86.02,1.72.03,2.61c0,.64.05,1.29.08,1.95.01.64.06,1.31.1,1.95.05.88.11,1.77.21,2.65.06.64.13,1.26.18,1.9.34,3.12.85,6.24,1.49,9.31.1.51.22,1.02.33,1.54.1.54.23,1.07.37,1.61.18.74.37,1.48.56,2.22.23.85.46,1.68.7,2.5.37,1.25.76,2.5,1.17,3.74s.86,2.46,1.32,3.68c.93,2.45,1.96,4.85,3.09,7.21.37.78.74,1.55,1.13,2.31c1.19,2.35,2.48,4.65,3.86,6.9.46.75.92,1.48,1.4,2.23c1.56,2.41,3.24,4.74,5.04,7.01.94,1.22,1.92,2.39,2.93,3.55c2.91,3.35,6.08,6.54,9.48,9.5c1.13.98,2.26,1.92,3.41,2.84.53.42,1.07.85,1.6,1.25.55.45,1.13.86,1.69,1.29.57.43,1.15.85,1.71,1.25c1.11.79,2.22,1.55,3.34,2.26.62.42,1.26.83,1.91,1.24.59.37,1.18.71,1.79,1.08c1.17.7,2.39,1.4,3.61,2.04.61.33,1.21.64,1.81.98c1.85.94,3.7,1.83,5.58,2.65.62.25,1.27.53,1.92.79c1.23.52,2.48.99,3.73,1.45.71.26,1.41.51,2.14.76.46.15.92.3,1.36.44.18.06.38.11.56.17h.01c.18.06.37.11.54.17.05.01.09.02.13.03.28.08.54.16.8.24.05.01.09.02.13.05.23.07.46.14.69.21.53.15,1.08.31,1.63.44.69.18,1.39.37,2.08.54.17.05.36.08.53.11.16.05.32.08.47.11.3.07.59.14.88.21.07.02.13.03.18.03.52.11,1.03.23,1.55.33.07.01.15.03.23.05.07.02.15.03.22.05.14.02.26.05.4.07.05.01.1.02.15.03.06.01.11.02.16.03.03,0,.08.01.11.02.09.02.18.03.29.05.16.03.32.07.48.09.05.01.1.02.16.03.16.03.32.06.48.09.44.08.87.15,1.32.22.86.15,1.75.28,2.63.39.48.07.95.13,1.44.18.44.05.88.1,1.32.15.31.03.62.07.93.09.36.05.71.08,1.08.11h.07c1.25.1,2.53.2,3.79.28.25.01.51.03.75.05s.44.06.68.08c.16.01.31.03.46.07.09.02.17.03.26.08.13.03.25.07.38.13.11.01.21.07.28.13.06.02.13.06.18.11.08.03.15.09.22.16.1.07.2.18.26.28.09.13.18.26.24.42.06.11.09.22.13.34.06.17.09.37.11.6.01.18.03.38.03.61v.2c-.03.91.25,1.41.7,1.69v8.14c-.17.11-.31.28-.41.46-.07.11-.13.22-.16.37-.01.02-.02.05-.02.07-.03.06-.05.13-.06.21-.02.05-.02.09-.03.15-.01.07-.03.15-.03.22-.07.33-.09.72-.07,1.16.01.41.03.83.05,1.24.01.42.02.85.03,1.27.02.84.03,1.68.03,2.53c0,.42-.01.85-.01,1.27v.05c0,1.57-.03,3.15-.1,4.72v.34c0,.08,0,.13.01.21-.01.22,0,.42.05.61.01.22.07.42.13.61.1.34.28.64.49.86.02.05.07.09.11.1v10.96c-.52,0-1.03-.01-1.55-.02-.15,0-.3,0-.45-.01-1.58-.02-3.18-.08-4.77-.18-.17,0-.33-.01-.49-.01-.16-.01-.32-.02-.48-.05h-.07c-.72-.05-1.45-.1-2.16-.16-.75-.06-1.49-.13-2.24-.21h-.07c-.33-.02-.65-.06-.99-.09h-.07c-1.53-.16-3.06-.36-4.58-.55-1.02-.15-2.08-.3-3.1-.48-.61-.09-1.21-.2-1.8-.29-.61-.11-1.21-.23-1.81-.33-.16-.05-.34-.08-.51-.11-1.39-.25-2.74-.53-4.11-.85-4.55-1.02-9.08-2.27-13.62-3.79-26.85-8.92-48.67-24.96-65.83-47.23-12.01-15.61-20.32-32.79-24.83-51.45-.37-1.57-.71-3.14-1.05-4.7-.24-1.18-.48-2.38-.68-3.57-.31-1.79-.61-3.58-.86-5.41-.26-1.81-.48-3.64-.67-5.49-.26-2.57-.46-5.13-.57-7.67c0-.02,0-.02,0-.02-.07-1.3-.1-2.63-.15-3.93-.01-.6-.03-1.18-.01-1.77-.05-1.8-.05-3.59.01-5.38.02-.98.06-1.95.09-2.93.09-1.95.23-3.9.39-5.83.11-1.1.22-2.23.33-3.33.01-.31.06-.63.1-.94.28-2.48.64-4.93,1.07-7.36.05-.2.06-.38.11-.56.22-1.24.46-2.47.71-3.69c0-.03,0-.09.02-.13.26-1.25.55-2.5.85-3.76.31-1.31.64-2.6.99-3.87.32-1.17.64-2.33,1-3.49.06-.17.1-.36.16-.55.39-1.19.78-2.39,1.18-3.59.37-1.08.76-2.18,1.17-3.27.41-1.17.87-2.33,1.34-3.51.21-.55.45-1.1.67-1.64.95-2.27,1.98-4.54,3.06-6.79.54-1.08,1.09-2.19,1.65-3.27.63-1.22,1.3-2.43,1.98-3.64.59-1.09,1.22-2.18,1.86-3.24c1.8-3.04,3.73-6.04,5.79-9c.94-1.34,1.91-2.68,2.87-3.97.63-.88,1.31-1.75,2-2.62.16-.2.31-.42.47-.62.64-.85,1.33-1.7,2.01-2.53c3.34-4.1,6.85-7.97,10.51-11.58.03-.06.07-.09.13-.13.3-.33.61-.63.92-.91.57-.59,1.18-1.14,1.77-1.71.03-.01.06-.05.09-.07.83-.79,1.68-1.56,2.54-2.32c2.78-2.47,5.64-4.8,8.58-7.02.1-.08.21-.16.31-.23.07-.06.14-.1.21-.15.03-.03.07-.07.1-.09.36-.26.7-.52,1.06-.76.8-.59,1.62-1.17,2.45-1.75.99-.68,1.99-1.37,3-1.99.48-.31.95-.64,1.46-.95.47-.32.98-.61,1.45-.91.37-.24.76-.46,1.13-.68.09-.06.21-.11.3-.18.61-.36,1.19-.72,1.81-1.07.57-.33,1.15-.67,1.73-.98.39-.23.77-.42,1.16-.64c2.15-1.16,4.33-2.26,6.56-3.3.51-.28,1.05-.52,1.57-.74.98-.46,1.95-.91,2.95-1.31.98-.42,1.95-.83,2.92-1.22.14-.06.26-.1.39-.15.86-.34,1.73-.68,2.6-.99.06-.02.09-.03.15-.06.3-.11.61-.22.91-.33.34-.13.68-.25,1.02-.37.45-.16.91-.31,1.34-.46.18-.07.37-.13.55-.18l.92-.31c1.06-.36,2.1-.69,3.15-1c.52-.16,1.06-.31,1.57-.46c1.96-.59,3.95-1.1,5.96-1.6.7-.17,1.4-.33,2.1-.48.56-.15,1.15-.28,1.75-.4.08-.02.16-.03.25-.06.11-.02.22-.05.33-.07.23-.05.47-.1.7-.15.09-.02.17-.03.26-.06.2-.03.39-.08.59-.11.59-.13,1.16-.23,1.75-.34.23-.05.46-.09.69-.13.24-.05.48-.09.72-.14.07-.01.13-.02.2-.03.24-.05.48-.09.72-.13.98-.16,1.95-.33,2.95-.48l1.69-.25c.14-.02.3-.05.45-.06.11-.01.25-.02.37-.05.01,0,.01,0,.02,0s.02,0,.03-.01c.03,0,.07-.01.1-.01c1.46-.21,2.91-.39,4.39-.55.41-.05.83-.08,1.24-.13.21-.03.43-.06.64-.07h.07v-.01c.61-.06,1.23-.11,1.84-.16h.07c.71-.06,1.41-.11,2.12-.18.2-.01.4-.02.6-.05h.07c1.88-.1,3.76-.2,5.64-.23c3.4-.08,6.81-.02,10.19.18c1.92.1,3.85.25,5.77.45.98.1,1.96.21,2.95.33.48.06.98.11,1.47.18.47.07.93.14,1.4.21c1.75.26,3.49.54,5.23.85.21.03.41.08.62.11.31.07.62.13.93.18.2.03.39.08.59.11.07.01.14.03.21.05.09.02.17.03.26.06.21.05.42.09.63.13.67.14,1.32.28,1.99.42.3.07.57.15.83.22.63.18,1.15.4,1.55.7.08.05.16.1.23.16l.06.06c.17.13.3.28.41.42.09.13.16.28.24.43.05.1.09.24.13.37.15.46.17,1.02.09,1.7-.01.11-.02.23-.05.36-.02.13-.05.26-.07.39-.13.68-.28,1.38-.42,2.07-.15.68-.28,1.36-.4,2.03-.28,1.39-.55,2.77-.83,4.12-.54,2.77-1.07,5.51-1.6,8.25-.08.45-.17.88-.26,1.33-.95,5.05-1.92,10.11-2.85,15.16-.24,1.29-.6,2.16-1.19,2.62-.18.15-.39.24-.63.31-.11.03-.24.06-.37.08-.28.03-.59.02-.94-.02-.23-.01-.47-.06-.74-.11-.16-.03-.33-.07-.49-.1-.88-.23-1.75-.45-2.63-.63-.13-.03-.25-.07-.38-.09-.16-.05-.27-.08-.38-.1Z" fill="#bc2228"/></g></g><g><g><path d="M279.64,824.52c-.01.11-.02.23-.05.36-.02.11-.05.25-.07.37h-.01c0,.01,0,.01,0,.02-.07.33-.15.68-.22,1.03-.05.26-.1.54-.15.82-.01.07-.02.13-.05.2c0,.01,0,.01,0,.02-.15.68-.28,1.36-.4,2.03-.28,1.39-.55,2.77-.83,4.12-.54,2.77-1.07,5.51-1.6,8.25-.08.45-.17.88-.26,1.33-.95,5.05-1.92,10.11-2.85,15.16-.09.47-.2.88-.32,1.25-.22.62-.49,1.08-.87,1.37-.18.15-.39.24-.63.31-.14.05-.28.07-.44.08-.28.03-.59.02-.94-.02-.21-.02-.42-.06-.67-.11-.16-.03-.33-.07-.49-.1-.88-.23-1.75-.45-2.63-.63-.15-.03-.3-.07-.45-.09-.1-.02-.22-.05-.32-.07-.2-.05-.39-.1-.6-.14-.16-.05-.32-.08-.49-.1-.17-.05-.36-.08-.54-.11-.01-.01-.05-.03-.09-.01-.01,0-.03-.01-.05-.01-.23-.06-.46-.1-.7-.14-.59-.14-1.17-.24-1.77-.33-.85-.18-1.7-.31-2.54-.42-1.27-.21-2.54-.37-3.81-.52-.33-.03-.67-.08-.99-.1-.33-.03-.67-.07-.99-.09-.61-.06-1.23-.1-1.84-.15-.7-.08-1.41-.11-2.11-.13-.09-.01-.17-.02-.25-.03s-.16-.01-.25-.01c-.22-.02-.44-.02-.65-.01-.08-.01-.15-.01-.23-.01-.41-.02-.82-.05-1.23-.07h-.09c-1.6-.06-3.18-.06-4.77-.01-1.38.01-2.76.07-4.13.16-1.03.06-2.08.14-3.1.24-.34.03-.68.07-1.02.11h-.07c-.32.02-.64.06-.95.09-.34.05-.68.09-1.02.14-.68.08-1.37.17-2.04.28-1.01.15-2.02.3-3.03.48-.74.13-1.48.28-2.19.42-1.07.21-2.14.44-3.2.7-.31.08-.61.15-.92.23-.59.14-1.17.29-1.75.45-.88.23-1.76.47-2.64.74-.59.17-1.16.36-1.75.54-1.14.34-2.26.73-3.38,1.14-.14.03-.24.07-.36.13-.88.32-1.77.64-2.63,1-.3.11-.59.22-.88.37-.42.17-.85.33-1.26.51-.41.17-.83.36-1.24.54-.3.11-.59.26-.88.39-.59.25-1.19.53-1.77.83-.62.28-1.23.57-1.84.88-2.69,1.32-5.31,2.79-7.84,4.38-.55.33-1.1.69-1.63,1.03-.3.18-.6.39-.88.59-.54.33-1.06.69-1.56,1.06-.05.01-.06.03-.08.06-.64.44-1.29.9-1.93,1.38-.54.4-1.07.79-1.6,1.19-.54.39-1.07.79-1.58,1.22-.08.05-.15.1-.23.18-1.01.79-1.99,1.6-2.96,2.45-.01.01-.05.03-.07.07-.92.77-1.8,1.58-2.69,2.41-.16.15-.34.31-.52.48-.94.86-1.86,1.78-2.78,2.72-.25.25-.52.53-.79.8-2.04,2.12-3.99,4.36-5.85,6.68-.7.87-1.39,1.77-2.08,2.68-.22.29-.44.59-.66.89-.17.23-.33.46-.5.69-.27.39-.55.77-.82,1.16c0,0,0,0,0,.02-.15.21-.3.41-.44.62-.34.48-.68.96-.99,1.46-.17.24-.33.49-.49.74-.17.29-.36.56-.53.85-.13.2-.24.4-.37.6-.3.48-.61.96-.91,1.46-.59.98-1.16,1.99-1.72,3.01-2.81,5.06-5.13,10.3-6.97,15.67-3.48,10.24-5.18,20.91-5.18,31.56c0,.86.02,1.72.03,2.61c0,.64.05,1.29.08,1.95.01.64.06,1.31.1,1.95.05.88.11,1.77.21,2.65.06.64.13,1.26.18,1.9.34,3.12.85,6.24,1.49,9.31.1.51.22,1.02.33,1.54.1.54.23,1.07.37,1.61.18.74.37,1.48.56,2.22.23.85.46,1.68.7,2.5.37,1.24.76,2.49,1.17,3.72c0,.01,0,.01,0,.02.41,1.24.86,2.46,1.32,3.68.93,2.45,1.96,4.85,3.09,7.21.37.78.74,1.55,1.13,2.31c1.19,2.35,2.48,4.65,3.86,6.9.23.37.45.72.68,1.09c0,.01.01.01.01.02.24.37.47.75.71,1.11c1.56,2.41,3.24,4.74,5.04,7.01.94,1.22,1.92,2.39,2.93,3.55c2.91,3.35,6.08,6.54,9.48,9.5c1.13.98,2.26,1.92,3.41,2.84.53.42,1.07.85,1.6,1.25.55.45,1.13.88,1.69,1.29.57.43,1.15.85,1.71,1.25c1.11.79,2.22,1.55,3.34,2.26.62.42,1.26.83,1.91,1.24.59.37,1.18.71,1.79,1.08c1.17.7,2.39,1.4,3.61,2.04.61.33,1.21.64,1.81.98c1.85.95,3.7,1.84,5.58,2.65.62.25,1.27.53,1.92.79c1.23.52,2.48.99,3.73,1.45.71.26,1.41.51,2.14.76.46.15.92.3,1.36.44.09.02.17.06.25.08.03.02.08.03.11.05.05.02.08.03.13.05h.01c.18.06.37.11.54.17.05.01.09.02.13.03.28.08.54.16.8.24.05.01.09.02.13.05.25.07.51.14.76.21.53.15,1.08.31,1.63.44.69.18,1.39.37,2.08.54.15.05.3.08.46.11.16.05.32.08.47.11.32.07.63.14.95.21.07.02.13.03.18.03.52.11,1.03.23,1.55.33.06.01.1.03.16.05.07.02.15.03.22.05.14.02.26.05.4.07.05.01.1.02.15.03.06.01.11.02.16.03.03,0,.08.01.11.02.11.01.23.02.36.05.14.03.28.07.41.09.05.01.1.02.16.03.16.03.32.06.48.09.16.02.32.05.48.07.3.06.6.1.91.15.86.15,1.75.28,2.63.39.48.07.95.13,1.44.18.41.06.83.1,1.25.15.31.03.62.07.93.09.38.05.76.08,1.15.11c1.25.1,2.53.2,3.79.28.25.01.51.03.75.05h.07c.24.02.44.06.68.08.16.01.31.03.46.07.09.02.17.03.26.08.13.03.25.07.38.13.11.01.21.07.28.13.06.02.13.06.18.11.08.03.15.09.22.16.1.07.2.18.26.28.09.13.18.26.24.42.02.06.05.11.07.17s.05.1.06.17c.06.17.09.37.11.6.01.18.03.38.03.61v.2c-.01.37.02.67.11.91.01.08.05.15.08.21.1.23.25.4.44.53.06.05.13.06.2.09-.01.01-.01.02-.01.03-.06-.03-.13-.05-.18-.08v8.14c.02-.02.05-.05.07-.06.05-.03.1-.07.15-.09v.05c-.02.01-.06.03-.08.05-.05.03-.09.06-.14.11-.07.06-.13.11-.2.18-.05.06-.1.14-.15.22-.07.11-.13.22-.16.37-.01.02-.02.05-.02.07v.01c0,.01-.01.02-.01.05c0,0,0,.01,0,.02-.01.03-.02.06-.03.08c0,.01-.01.03-.01.05-.01.02-.02.05-.02.07s0,.05-.01.08c-.01.07-.03.15-.03.22c0,.01,0,.01,0,.02-.03.18-.03.41-.03.62-.02.17-.03.33-.02.52.01.4.03.82.03,1.22c0,.01,0,.01,0,.02.01.42.02.85.03,1.27.02.84.03,1.68.03,2.53.01.4.01.83.01,1.23c0,.01,0,.01,0,.02l-.02.02-.07.05-8.82,5.91-15.01,10.06-.02.02c-.01,0-.01,0-.02,0s-.02,0-.03-.01c-.02,0-.05-.01-.07-.01-.14-.02-.28-.03-.4-.07-1.39-.25-2.74-.53-4.11-.85-4.55-1.02-9.08-2.27-13.62-3.79-26.85-8.92-48.67-24.96-65.83-47.23-9.76-12.69-17.08-26.42-21.89-41.14-1.11-3.39-2.09-6.82-2.94-10.31-.37-1.57-.71-3.14-1.05-4.7-.24-1.18-.48-2.38-.68-3.57-.06-.31-.1-.61-.15-.92-.26-1.48-.51-2.97-.71-4.49c0-.01,0-.01,0-.02-.25-1.8-.47-3.63-.65-5.47-.24-2.5-.42-5-.57-7.47c0-.07-.01-.14-.01-.21c0-.02,0-.02,0-.02-.07-1.3-.1-2.63-.15-3.93-.01-.6-.03-1.18-.01-1.77-.05-1.8-.05-3.59.01-5.38.02-.98.06-1.95.09-2.93.09-1.95.23-3.9.39-5.83.11-1.1.22-2.23.33-3.33.01-.31.06-.63.1-.94.28-2.48.64-4.93,1.07-7.36.05-.2.06-.38.11-.56.22-1.24.46-2.47.71-3.69c0-.03,0-.09.02-.13.26-1.25.55-2.5.85-3.76.31-1.31.64-2.6.99-3.87.32-1.17.64-2.33,1-3.49.06-.17.1-.36.16-.55.39-1.19.78-2.39,1.18-3.59.37-1.08.76-2.18,1.17-3.27.41-1.17.87-2.33,1.34-3.51.21-.55.45-1.1.67-1.64.95-2.27,1.98-4.54,3.06-6.79.54-1.08,1.09-2.19,1.65-3.27.63-1.22,1.3-2.43,1.98-3.64.59-1.09,1.22-2.18,1.86-3.24c1.8-3.04,3.73-6.04,5.79-9c.94-1.34,1.91-2.68,2.87-3.97.63-.88,1.31-1.75,2-2.62.16-.2.31-.42.47-.62.64-.85,1.33-1.7,2.01-2.53c3.34-4.1,6.85-7.97,10.51-11.58.03-.06.07-.09.13-.13.03-.03.08-.07.13-.11l.79-.79c.57-.59,1.18-1.14,1.77-1.71.03-.01.06-.05.09-.07.83-.79,1.68-1.56,2.54-2.32c2.78-2.47,5.64-4.8,8.58-7.02.1-.08.21-.16.31-.23.07-.06.14-.1.21-.15.03-.02.07-.06.1-.08v-.01c.36-.26.7-.52,1.06-.76.8-.59,1.62-1.17,2.45-1.75.99-.68,1.99-1.37,3-1.99.21-.16.42-.3.64-.45.22-.14.44-.29.64-.42.02-.02.06-.03.09-.05.02-.02.05-.02.08-.03.47-.32.98-.61,1.45-.91.37-.24.76-.46,1.13-.68.09-.06.21-.11.3-.18.61-.36,1.19-.72,1.81-1.07.57-.33,1.15-.67,1.73-.98.39-.23.77-.42,1.16-.64c2.15-1.16,4.33-2.26,6.56-3.3.51-.28,1.05-.52,1.57-.74.98-.46,1.95-.91,2.95-1.31.98-.42,1.95-.83,2.92-1.22.14-.06.26-.1.39-.15.86-.34,1.73-.68,2.6-.99.06-.02.09-.03.15-.06.3-.11.61-.22.91-.33.07-.02.13-.05.18-.06.06-.01.11-.02.18-.05.22-.09.44-.17.65-.26.45-.16.91-.31,1.34-.46.18-.07.37-.13.55-.18l.92-.31c1.06-.36,2.1-.69,3.15-1c.52-.16,1.06-.31,1.57-.46c1.96-.59,3.95-1.1,5.96-1.6.7-.17,1.4-.33,2.1-.48.56-.15,1.15-.28,1.75-.4.08-.02.16-.03.25-.06.09-.02.17-.05.26-.07.08-.01.16-.03.24-.06.15-.02.31-.06.46-.09.09-.02.17-.03.26-.06.22-.03.44-.08.65-.11.59-.13,1.16-.23,1.75-.34.21-.05.41-.08.62-.13.24-.05.48-.09.72-.14.07-.01.13-.02.2-.03.14-.02.26-.03.4-.06.13-.02.26-.05.39-.07.98-.16,1.95-.33,2.95-.48l1.69-.25c.13-.01.24-.03.38-.06.11-.01.25-.02.37-.05.01,0,.01,0,.02,0s.02,0,.03-.01c.03,0,.07-.01.1-.01h.07c1.46-.21,2.91-.39,4.39-.55.39-.03.78-.08,1.17-.13.21-.03.42-.06.64-.07.02-.01.05-.01.07-.01.26-.03.53-.06.79-.08.21-.02.41-.03.62-.06.15-.01.31-.03.47-.05.08-.01.17-.01.25-.02.64-.05,1.26-.09,1.9-.14.2-.01.4-.02.6-.05h.07c1.88-.1,3.76-.2,5.64-.23c3.4-.08,6.81-.02,10.19.18c1.92.1,3.85.25,5.77.45.98.1,1.96.21,2.95.33.48.06.98.11,1.47.18.48.07.98.14,1.47.21.87.11,1.75.25,2.62.39s1.73.3,2.61.46c.18.03.37.07.55.11.05,0,.1.01.15.02.64.11,1.29.23,1.92.36.87.17,1.73.36,2.61.55.3.08.59.15.83.24.63.18,1.15.4,1.55.7.08.05.16.1.23.16.02.01.03.03.06.05v.01c.17.13.3.28.41.42.09.13.16.28.24.42.02.05.05.11.07.17.02.07.05.13.06.2.13.45.15,1.01.07,1.69Z" fill="#bc2228"/><path d="M219.29,1093.6l-.02.02c.31.05.61.1.91.17.3.05.6.1.91.16-.61-.11-1.21-.24-1.8-.35Z" fill="#bc2228"/><path d="M279.64,824.52c-.01.11-.02.23-.05.36-.02.11-.05.25-.07.37c0,.01,0,.01,0,.02-.11.61-.24,1.23-.38,1.85-.01.07-.02.13-.05.2c0,.01,0,.01,0,.02-.15.68-.28,1.36-.4,2.03-.28,1.39-.55,2.77-.83,4.12-.54,2.77-1.07,5.51-1.6,8.25-.08.45-.17.88-.26,1.33-.95,5.05-1.92,10.11-2.85,15.16-.09.47-.2.88-.32,1.25-.22.62-.49,1.08-.87,1.37-.18.15-.39.24-.63.31-.14.05-.28.07-.44.08-.28.03-.59.02-.94-.02-.21-.02-.42-.06-.67-.11-.16-.03-.33-.07-.49-.1-.88-.23-1.75-.45-2.63-.63-.46-.11-.91-.22-1.37-.3-.16-.05-.32-.08-.49-.1-.17-.05-.36-.08-.54-.11-.01-.01-.05-.03-.09-.01-.01,0-.03-.01-.05-.01-.23-.06-.46-.1-.7-.14-.59-.14-1.17-.24-1.77-.33-.85-.18-1.7-.31-2.54-.42-1.27-.21-2.54-.37-3.81-.52-.33-.03-.67-.08-.99-.1-.33-.03-.67-.07-.99-.09-.61-.06-1.23-.1-1.84-.15-.7-.08-1.41-.11-2.11-.13-.09-.01-.17-.02-.25-.03s-.16-.01-.25-.01c-.22-.02-.44-.02-.65-.01-.08-.01-.15-.01-.23-.01-.41-.05-.82-.05-1.23-.07h-.09c-1.6-.06-3.18-.06-4.77-.01-1.38.01-2.76.07-4.13.16-1.03.06-2.08.14-3.1.24-.34.03-.68.07-1.02.11h-.07c-.32.02-.64.06-.95.09-.34.05-.68.09-1.02.14-.14.01-.28.02-.41.05-.36.05-.74.09-1.09.14-.05.01-.08.01-.13.02-.14.02-.28.05-.41.07-1.01.15-2.02.3-3.03.48-.74.13-1.48.28-2.19.42-1.07.21-2.14.44-3.2.7-.31.08-.61.15-.92.23-.59.14-1.17.29-1.75.45-.09.02-.18.05-.28.07-.79.22-1.58.44-2.37.67-.59.17-1.16.36-1.75.54-1.14.34-2.26.73-3.38,1.14-.14.03-.24.07-.36.13-.88.32-1.77.64-2.63,1-.3.11-.59.22-.88.37-.31.11-.61.24-.92.36-.11.05-.23.1-.34.15-.03.01-.08.03-.13.05-.38.16-.75.32-1.11.49-.3.11-.59.26-.88.39-.59.25-1.19.53-1.77.83-.62.28-1.23.57-1.84.88-2.69,1.32-5.31,2.79-7.84,4.38-.55.33-1.1.69-1.63,1.03-.3.18-.6.39-.88.59-.54.33-1.06.69-1.56,1.06-.05.01-.06.03-.08.06-.64.44-1.29.9-1.93,1.38-.17.11-.34.24-.52.37-.2.14-.39.28-.57.42-.17.13-.34.26-.51.4-.54.39-1.07.79-1.58,1.22-.08.05-.15.1-.23.18-1.01.79-1.99,1.6-2.96,2.45-.01.01-.05.03-.07.07-.92.77-1.8,1.58-2.69,2.41-.16.15-.34.31-.52.48-.94.86-1.86,1.78-2.78,2.72-.25.25-.52.53-.79.8-2.04,2.12-3.99,4.36-5.85,6.68-.7.87-1.39,1.77-2.08,2.68-.67.9-1.32,1.81-1.98,2.73c0,0,0,0,0,.02-.96,1.38-1.9,2.8-2.81,4.26-.3.48-.61.96-.91,1.46-.59.98-1.16,1.99-1.72,3.01-2.81,5.06-5.13,10.3-6.97,15.67-3.48,10.24-5.18,20.91-5.18,31.56c0,.86.02,1.72.03,2.61c0,.64.05,1.29.08,1.95.01.64.06,1.31.1,1.95.05.88.11,1.77.21,2.65.06.64.13,1.26.18,1.9.34,3.12.85,6.24,1.49,9.31.1.51.22,1.02.33,1.54.1.54.23,1.07.37,1.61.18.74.37,1.48.56,2.22.23.85.46,1.68.7,2.5.37,1.24.76,2.49,1.17,3.72c0,.01,0,.01,0,.02.41,1.24.86,2.46,1.32,3.68.93,2.45,1.96,4.85,3.09,7.21.37.78.74,1.55,1.13,2.31c1.19,2.35,2.48,4.65,3.86,6.9.23.37.45.72.68,1.09c0,.01.01.01.01.02.24.37.47.75.71,1.11c1.56,2.41,3.24,4.74,5.04,7.01.94,1.22,1.92,2.39,2.93,3.55c2.91,3.35,6.08,6.54,9.48,9.5c1.13.98,2.26,1.92,3.41,2.84.53.42,1.07.85,1.6,1.25.55.45,1.13.86,1.69,1.29.57.43,1.15.85,1.71,1.25c1.11.79,2.22,1.55,3.34,2.26.62.42,1.26.83,1.91,1.24.59.37,1.18.71,1.79,1.08c1.17.7,2.39,1.4,3.61,2.04.61.33,1.21.64,1.81.98.46.24.93.47,1.39.68.92.47,1.85.92,2.79,1.33.46.23.93.44,1.4.64.62.25,1.27.53,1.92.79c1.23.52,2.48.99,3.73,1.45.71.26,1.41.51,2.14.76.46.15.92.3,1.36.44.09.02.17.06.25.08.17.05.33.09.49.15.16.05.32.09.49.15.26.08.54.16.8.24.28.08.54.17.82.25.53.15,1.08.31,1.63.44.69.18,1.39.37,2.08.54.63.15,1.25.29,1.88.44.07.02.13.03.18.03.52.11,1.03.23,1.55.33.06.01.11.02.18.03.2.05.39.09.6.13.26.05.52.09.78.14.51.1,1.02.2,1.54.29.3.06.6.1.91.15.86.15,1.75.28,2.63.39.48.07.95.13,1.44.18.72.08,1.45.16,2.18.24.38.05.76.08,1.15.11c1.25.1,2.53.2,3.79.28.25.01.51.03.75.05h.07c.24.02.44.06.68.08.16.01.31.03.46.07.09.02.17.03.26.08.13.03.25.07.38.13.11.01.21.07.28.13.06.02.13.06.18.11.08.03.15.09.22.16.1.07.2.18.26.28.09.13.18.26.24.42.02.06.05.11.07.17s.05.1.06.17c.06.17.09.37.11.6.01.18.03.38.03.61v.2c-.01.37.02.67.11.91.01.08.05.15.08.21.1.23.25.4.44.53.06.05.13.06.2.09-.01.01-.01.02-.01.03-.06-.03-.13-.05-.18-.08v8.14c.02-.02.05-.05.07-.06.05-.03.1-.07.15-.09v.05c-.02.01-.06.03-.08.05-.05.03-.09.06-.14.11-.07.06-.13.11-.2.18-.05.06-.1.14-.15.22-.07.11-.13.22-.16.37-.01.02-.02.05-.02.07v.01c-.02.02-.03.06-.03.08-.01.02-.01.05-.01.07-.01.01-.01.03-.01.05-.01.02-.02.05-.02.07s0,.05-.01.08c-.01.07-.03.15-.03.22c0,.01,0,.01,0,.02-.07.32-.09.71-.07,1.14.01.4.03.82.05,1.22c0,.01,0,.01,0,.02.01.42.02.85.03,1.27.02.84.03,1.68.03,2.53c0,.41-.01.84-.01,1.25c0,.01,0,.01,0,.02c0,1.58-.03,3.18-.1,4.77v.34c0,.08,0,.13.01.21-.01.22,0,.42.05.61.01.21.07.41.13.59c0,.01,0,.01,0,.02.1.34.28.64.49.86.01.02.02.05.05.06.02.02.05.03.06.05s.02.05.02.07c-.01-.01-.02-.02-.05-.05-.01,0-.02-.01-.03-.02v10.89c-.52,0-1.03-.01-1.55-.02-.15,0-.3,0-.45-.01-1.58-.02-3.18-.08-4.77-.18-.17,0-.33-.01-.49-.01-.16-.01-.32-.02-.48-.05h-.07c-.72-.05-1.45-.1-2.16-.16-.75-.06-1.49-.13-2.24-.21h-.07c-.33-.02-.65-.06-.99-.09-1.53-.16-3.06-.36-4.58-.55-1.02-.15-2.08-.3-3.1-.48-.61-.09-1.21-.2-1.8-.29-.31-.06-.61-.11-.91-.16-.3-.07-.6-.13-.91-.17-.02,0-.03-.01-.06-.01-.06-.02-.13-.03-.2-.05-.02-.01-.05-.01-.07-.01-.07-.02-.13-.03-.18-.05-1.39-.25-2.74-.53-4.11-.85-4.55-1.02-9.08-2.27-13.62-3.79-26.85-8.92-48.67-24.96-65.83-47.23-9.76-12.69-17.08-26.42-21.89-41.14-1.11-3.39-2.09-6.82-2.94-10.31-.37-1.57-.71-3.14-1.05-4.7-.24-1.18-.48-2.38-.68-3.57-.06-.31-.1-.61-.15-.92-.26-1.48-.51-2.97-.71-4.49c0-.01,0-.01,0-.02-.1-.67-.2-1.33-.28-2-.15-1.15-.28-2.31-.39-3.47-.25-2.5-.45-5-.56-7.47c0-.07-.01-.14-.01-.21c0-.02,0-.02,0-.02-.07-1.3-.1-2.63-.15-3.93-.01-.6-.03-1.18-.01-1.77-.05-1.8-.05-3.59.01-5.38.02-.98.06-1.95.09-2.93.09-1.95.23-3.9.39-5.83.11-1.1.22-2.23.33-3.33.01-.31.06-.63.1-.94.28-2.48.64-4.93,1.07-7.36.05-.2.06-.38.11-.56.22-1.24.46-2.47.71-3.69c0-.03,0-.09.02-.13.26-1.25.55-2.5.85-3.76.31-1.31.64-2.6.99-3.87.32-1.17.64-2.33,1-3.49.06-.17.1-.36.16-.55.39-1.19.78-2.39,1.18-3.59.37-1.08.76-2.18,1.17-3.27.41-1.17.87-2.33,1.34-3.51.21-.55.45-1.1.67-1.64.95-2.27,1.98-4.54,3.06-6.79.54-1.08,1.09-2.19,1.65-3.27.63-1.22,1.3-2.43,1.98-3.64.59-1.09,1.22-2.18,1.86-3.24c1.8-3.04,3.73-6.04,5.79-9c.94-1.34,1.91-2.68,2.87-3.97.63-.88,1.31-1.75,2-2.62.16-.2.31-.42.47-.62.64-.85,1.33-1.7,2.01-2.53c3.34-4.1,6.85-7.97,10.51-11.58.03-.06.07-.09.13-.13.05-.05.08-.09.13-.14.1-.11.22-.23.33-.33.15-.16.3-.3.46-.44.57-.59,1.18-1.14,1.77-1.71.03-.01.06-.05.09-.07.83-.79,1.68-1.56,2.54-2.32c2.78-2.47,5.64-4.8,8.58-7.02.1-.08.21-.16.31-.23.07-.06.14-.1.21-.15.03-.03.07-.07.1-.09.36-.26.7-.52,1.06-.76.8-.59,1.62-1.17,2.45-1.75.99-.68,1.99-1.37,3-1.99.48-.31.95-.64,1.46-.95.47-.32.98-.61,1.45-.91.37-.24.76-.46,1.13-.68.09-.06.21-.11.3-.18.61-.36,1.19-.72,1.81-1.07.57-.33,1.15-.67,1.73-.98.39-.23.77-.42,1.16-.64c2.15-1.16,4.33-2.26,6.56-3.3.51-.28,1.05-.52,1.57-.74.98-.46,1.95-.91,2.95-1.31.98-.42,1.95-.83,2.92-1.22.14-.06.26-.1.39-.15.86-.34,1.73-.68,2.6-.99.06-.02.09-.03.15-.06.3-.11.61-.22.91-.33.07-.02.13-.05.18-.06.01-.01.02-.02.03-.02.02,0,.03,0,.05-.01.03-.01.06-.02.08-.02.01-.01.03-.02.05-.02.02-.01.03-.01.06-.02.18-.07.38-.15.57-.21.45-.16.91-.31,1.34-.46.18-.07.37-.13.55-.18l.92-.31c1.06-.36,2.1-.69,3.15-1c.52-.16,1.06-.31,1.57-.46c1.96-.59,3.95-1.1,5.96-1.6.7-.17,1.4-.33,2.1-.48.56-.15,1.15-.28,1.75-.4.08-.02.16-.03.25-.06.62-.13,1.24-.26,1.88-.39.59-.13,1.16-.23,1.75-.34.64-.13,1.3-.25,1.94-.36.13-.02.26-.05.39-.07.98-.16,1.95-.33,2.95-.48l1.69-.25c.13-.01.24-.03.38-.06.11-.01.25-.02.37-.05.01,0,.01,0,.02,0c.07-.01.14-.01.21-.02c1.46-.21,2.91-.39,4.39-.55.39-.03.78-.08,1.17-.13.24-.02.47-.05.71-.07.61-.06,1.23-.11,1.84-.17h.07c.71-.06,1.41-.11,2.12-.18.2-.01.4-.02.6-.05h.07c1.88-.1,3.76-.2,5.64-.23c3.4-.08,6.81-.02,10.19.18c1.92.1,3.85.25,5.77.45.98.1,1.96.21,2.95.33.48.06.98.11,1.47.18.48.07.98.14,1.47.21.39.06.78.11,1.17.18.9.14,1.79.28,2.68.44.46.07.92.15,1.38.23.18.03.37.07.55.11.05,0,.1.01.15.02.26.06.52.1.78.16.2.03.39.08.59.11.07.01.14.03.21.05.09.02.17.03.26.06.21.05.42.09.63.13.69.14,1.37.28,2.06.42.13.03.25.06.37.09.07.02.14.05.21.06.09.02.17.05.25.07.63.18,1.15.4,1.55.7.08.05.16.1.23.16l.06.06c.17.13.3.28.41.42.09.13.16.28.24.42.02.05.05.11.07.17.02.07.05.13.06.2.11.5.13,1.06.05,1.74Z" fill="#bc2228"/></g></g></g></g><path d="M243.87,1060.43h-.03v.05v8.14.03.02c.05-.06.09-.08.14-.11.02-.01.06-.03.08-.05v-.03c.06-.05.13-.09.18-.13.07-.05.16-.09.25-.13v-7.56l-.62-.23Z" fill="#bc2228"/><path d="M244.17,1096.02l.32-.01v-10.58c-.01,0-.01,0-.02,0-.07-.02-.14-.06-.2-.09-.13-.08-.24-.15-.33-.26-.01,0-.03-.01-.05-.02s-.03-.02-.06-.05v.02.02.02v10.93l.34.02Z" fill="#bc2228"/></g></g></svg>
