<svg width="24" height="24" viewBox="0 0 24 24" fill="none" xmlns="http://www.w3.org/2000/svg">
<mask id="mask0_1844_2666" style="mask-type:alpha" maskUnits="userSpaceOnUse" x="0" y="0" width="24" height="24">
<rect width="24" height="24" fill="#D9D9D9" style="fill:#D9D9D9;fill:color(display-p3 0.8510 0.8510 0.8510);fill-opacity:1;"/>
</mask>
<g mask="url(#mask0_1844_2666)">
<path d="M12.675 10.5073L9.6 13.5805L11 15.0047L15.5 10.5073L11 6.00995L9.6 7.43411L12.675 10.5073ZM12 20.5014C10.6167 20.5014 9.31667 20.2391 8.1 19.7144C6.88333 19.1897 5.825 18.4776 4.925 17.5781C4.025 16.6787 3.3125 15.621 2.7875 14.405C2.2625 13.1891 2 11.8898 2 10.5073C2 9.12479 2.2625 7.82555 2.7875 6.6096C3.3125 5.39365 4.025 4.33594 4.925 3.43646C5.825 2.53699 6.88333 1.82491 8.1 1.30022C9.31667 0.775529 10.6167 0.513184 12 0.513184C13.3833 0.513184 14.6833 0.775529 15.9 1.30022C17.1167 1.82491 18.175 2.53699 19.075 3.43646C19.975 4.33594 20.6875 5.39365 21.2125 6.6096C21.7375 7.82555 22 9.12479 22 10.5073C22 11.8898 21.7375 13.1891 21.2125 14.405C20.6875 15.621 19.975 16.6787 19.075 17.5781C18.175 18.4776 17.1167 19.1897 15.9 19.7144C14.6833 20.2391 13.3833 20.5014 12 20.5014ZM12 18.5026C14.2333 18.5026 16.125 17.7281 17.675 16.179C19.225 14.6299 20 12.7393 20 10.5073C20 8.27528 19.225 6.38473 17.675 4.83564C16.125 3.28655 14.2333 2.51201 12 2.51201C9.76667 2.51201 7.875 3.28655 6.325 4.83564C4.775 6.38473 4 8.27528 4 10.5073C4 12.7393 4.775 14.6299 6.325 16.179C7.875 17.7281 9.76667 18.5026 12 18.5026Z" fill="#1C1B1F" style="fill:#1C1B1F;fill:color(display-p3 0.1098 0.1059 0.1216);fill-opacity:1;"/>
</g>
</svg>
