<svg width="24" height="24" viewBox="0 0 24 24" fill="none" xmlns="http://www.w3.org/2000/svg">
<mask id="mask0_1844_2669" style="mask-type:alpha" maskUnits="userSpaceOnUse" x="0" y="0" width="24" height="24">
<rect x="24" y="24" width="24" height="24" transform="rotate(180 24 24)" fill="#D9D9D9" style="fill:#D9D9D9;fill:color(display-p3 0.8510 0.8510 0.8510);fill-opacity:1;"/>
</mask>
<g mask="url(#mask0_1844_2669)">
<path d="M11.325 10.5073L14.4 7.43415L13 6.00999L8.5 10.5073L13 15.0047L14.4 13.5805L11.325 10.5073ZM12 0.513223C13.3833 0.513222 14.6833 0.775569 15.9 1.30026C17.1167 1.82495 18.175 2.53703 19.075 3.4365C19.975 4.33597 20.6875 5.39368 21.2125 6.60964C21.7375 7.82559 22 9.12482 22 10.5073C22 11.8899 21.7375 13.1891 21.2125 14.4051C20.6875 15.621 19.975 16.6787 19.075 17.5782C18.175 18.4777 17.1167 19.1897 15.9 19.7144C14.6833 20.2391 13.3833 20.5015 12 20.5015C10.6167 20.5015 9.31667 20.2391 8.1 19.7144C6.88333 19.1897 5.825 18.4777 4.925 17.5782C4.025 16.6787 3.3125 15.621 2.7875 14.4051C2.2625 13.1891 2 11.8899 2 10.5073C2 9.12482 2.2625 7.82559 2.7875 6.60964C3.3125 5.39369 4.025 4.33597 4.925 3.4365C5.825 2.53703 6.88333 1.82495 8.1 1.30026C9.31666 0.775569 10.6167 0.513223 12 0.513223ZM12 2.51205C9.76666 2.51205 7.875 3.28659 6.325 4.83568C4.775 6.38477 4 8.27532 4 10.5073C4 12.7394 4.775 14.6299 6.325 16.179C7.875 17.7281 9.76667 18.5026 12 18.5026C14.2333 18.5026 16.125 17.7281 17.675 16.179C19.225 14.6299 20 12.7394 20 10.5073C20 8.27532 19.225 6.38477 17.675 4.83568C16.125 3.28659 14.2333 2.51205 12 2.51205Z" fill="#1C1B1F" style="fill:#1C1B1F;fill:color(display-p3 0.1098 0.1059 0.1216);fill-opacity:1;"/>
</g>
</svg>
